<svg width="40" height="40" viewBox="0 0 40 40" fill="none" xmlns="http://www.w3.org/2000/svg">
<path d="M7.20003 25.6429C8.8303 28.7256 12.0856 29.8333 17.8333 29.8333C25.7751 29.8333 28.9585 27.7184 29.6713 21.2007M7.20003 25.6429C6.22747 23.804 5.83325 21.2621 5.83325 17.8333C5.83325 8.65678 8.65678 5.83325 17.8333 5.83325C27.0097 5.83325 29.8333 8.65678 29.8333 17.8333C29.8333 19.0679 29.7821 20.1875 29.6713 21.2007M7.20003 25.6429L11.6014 21.2416C12.7041 20.1389 14.4918 20.1389 15.5945 21.2416L15.8367 21.4838C16.9394 22.5864 18.7271 22.5864 19.8298 21.4838L22.8955 18.418C23.9982 17.3154 25.786 17.3154 26.8886 18.418L29.6713 21.2007M15.9853 13.3805C15.9853 14.8191 14.8177 15.9867 13.3791 15.9867C11.942 15.9867 10.7744 14.8191 10.7744 13.3805C10.7744 11.942 11.942 10.7744 13.3791 10.7744C14.8177 10.7744 15.9853 11.942 15.9853 13.3805Z" stroke="#18AE50" stroke-width="2" stroke-linecap="round" stroke-linejoin="round"/>
</svg>
