<svg width="18" height="18" viewBox="0 0 18 18" fill="none" xmlns="http://www.w3.org/2000/svg">
<path d="M17.125 8.99982V11.4998C17.125 13.2231 15.7225 14.6248 14 14.6248H3.0092L4.4425 16.0581C4.68667 16.3023 4.68667 16.6982 4.4425 16.9423C4.32084 17.064 4.16081 17.1256 4.00081 17.1256C3.84081 17.1256 3.68079 17.0648 3.55912 16.9423L1.05912 14.4423C1.00162 14.3848 0.955902 14.3157 0.924235 14.2391C0.860902 14.0866 0.860902 13.9141 0.924235 13.7616C0.955902 13.6849 1.00162 13.6156 1.05912 13.5581L3.55912 11.0581C3.80329 10.814 4.19915 10.814 4.44332 11.0581C4.68749 11.3023 4.68749 11.6982 4.44332 11.9423L3.01001 13.3756H14C15.0333 13.3756 15.875 12.5348 15.875 11.5006V9.00063C15.875 8.65563 16.155 8.37563 16.5 8.37563C16.845 8.37563 17.125 8.65482 17.125 8.99982ZM1.5 9.62482C1.845 9.62482 2.125 9.34482 2.125 8.99982V6.49982C2.125 5.46565 2.96667 4.62482 4 4.62482H14.9908L13.5575 6.05813C13.3133 6.30229 13.3133 6.69815 13.5575 6.94232C13.6792 7.06399 13.8392 7.12563 13.9992 7.12563C14.1592 7.12563 14.3192 7.06482 14.4409 6.94232L16.9409 4.44232C16.9984 4.38482 17.0441 4.31574 17.0758 4.23907C17.1391 4.08657 17.1391 3.91408 17.0758 3.76158C17.0441 3.68491 16.9984 3.61562 16.9409 3.55812L14.4409 1.05813C14.1967 0.813958 13.8008 0.813958 13.5567 1.05813C13.3125 1.30229 13.3125 1.69815 13.5567 1.94232L14.99 3.37563H4C2.2775 3.37563 0.875 4.7773 0.875 6.50063V9.00063C0.875 9.3448 1.155 9.62482 1.5 9.62482Z" fill="black" fill-opacity="0.8"/>
</svg>
