<svg width="32" height="33" viewBox="0 0 32 33" fill="none" xmlns="http://www.w3.org/2000/svg">
<path d="M16.0068 29.5C14.6894 29.5 13.5041 28.816 12.8361 27.6693C12.5587 27.192 12.7201 26.58 13.1974 26.3027C13.6734 26.024 14.2867 26.1853 14.5641 26.664C15.1747 27.7107 16.8374 27.7133 17.4494 26.664C17.7281 26.1867 18.3414 26.0267 18.8174 26.304C19.2948 26.5813 19.4561 27.1947 19.1774 27.672C18.5081 28.816 17.3241 29.5 16.0068 29.5ZM27.5681 24.9333C27.7347 24.5867 27.6881 24.176 27.4481 23.876C27.4241 23.8453 25.0014 20.7747 25.0014 17.168V13.8333C25.0014 13.2813 24.5534 12.8333 24.0014 12.8333C23.4494 12.8333 23.0014 13.2813 23.0014 13.8333V17.1667C23.0014 19.748 23.9987 22.044 24.8214 23.5H7.18273C8.0054 22.044 9.00274 19.748 9.00274 17.1667V12.5C9.00274 8.64 12.1427 5.5 16.0027 5.5C16.5547 5.5 17.0027 5.052 17.0027 4.5C17.0027 3.948 16.5547 3.5 16.0027 3.5C11.0401 3.5 7.00274 7.53733 7.00274 12.5V17.1667C7.00274 20.752 4.57874 23.8453 4.55474 23.876C4.31608 24.176 4.26941 24.588 4.43741 24.9333C4.60408 25.2787 4.95342 25.5 5.33742 25.5H26.6708C27.0508 25.5 27.4014 25.28 27.5681 24.9333ZM26.3334 7.16667C26.3334 5.14533 24.6894 3.5 22.6667 3.5C20.6441 3.5 19.0001 5.14533 19.0001 7.16667C19.0001 9.188 20.6441 10.8333 22.6667 10.8333C24.6894 10.8333 26.3334 9.188 26.3334 7.16667ZM24.3334 7.16667C24.3334 8.08533 23.5854 8.83333 22.6667 8.83333C21.7481 8.83333 21.0001 8.08533 21.0001 7.16667C21.0001 6.248 21.7481 5.5 22.6667 5.5C23.5854 5.5 24.3334 6.248 24.3334 7.16667Z" fill="black"/>
</svg>
