<svg width="205" height="69" viewBox="0 0 205 69" fill="none" xmlns="http://www.w3.org/2000/svg">
<ellipse cx="29.5" cy="32.5079" rx="19.5" ry="16.5" fill="#18AE50"/>
<path d="M49.0779 10.1126L41.8108 36.9352L22.8931 19.4197L49.0779 10.1126Z" fill="#18AE50"/>
<path d="M1 68.0079C17.8921 64.3154 29.9355 51.0841 33.8457 44.93C29.9355 42.6222 22.5843 38.4682 24.4612 40.3145C26.3381 42.1607 9.60245 59.546 1 68.0079Z" fill="#18AE50" stroke="#18AE50" stroke-width="0.5"/>
<path d="M89.3715 9.784H81.4355V2.36H89.3715V9.784ZM77.3395 9.784H69.4035V2.36H77.3395V9.784ZM103.708 51H94.6835C89.5635 51 85.9795 48.376 83.9315 43.128C82.3315 45.624 79.2595 46.968 74.8435 46.968C67.1635 46.968 62.2355 40.312 62.2355 31.48C62.2355 21.944 67.0355 15.8 75.4835 15.8C75.4835 15.736 81.1795 15.736 92.5715 15.736V35.896C92.5715 40.12 94.7475 42.424 99.0995 42.424H103.708V51ZM83.3555 30.776V22.328H77.4675C73.8195 22.328 71.1315 26.36 71.1315 31.352C71.1315 35.832 73.6915 39.544 77.2755 39.544C81.0515 39.544 83.3555 36.024 83.3555 30.776ZM145.635 51H135.395C132.771 54.648 128.739 56.504 123.427 56.504C117.987 56.504 113.955 54.648 111.267 51H101.474V42.424H108.643C108.643 33.208 113.891 27.448 123.171 27.448C132.515 27.448 138.147 33.016 138.147 42.424H145.635V51ZM129.251 42.232C129.251 37.176 127.331 34.616 123.555 34.616H122.915C119.651 34.616 117.475 37.688 117.475 41.848C117.475 46.136 119.651 49.208 123.427 49.208C127.075 49.208 129.251 46.52 129.251 42.232ZM201.527 51H142.327V42.424H150.391C153.335 42.424 154.935 40.888 154.935 36.28V25.08H163.895V33.592C169.591 26.232 177.079 21.88 184.247 21.88C195.703 21.88 201.847 30.648 201.847 45.112C201.847 47.032 201.719 49.016 201.527 51ZM192.439 42.424L192.503 41.272C192.503 34.68 189.239 29.688 183.607 29.688C177.015 29.688 171.127 33.976 166.199 42.424H192.439ZM186.743 17.144H178.743V9.784H186.743V17.144Z" fill="black"/>
</svg>
