<svg width="18" height="16" viewBox="0 0 18 16" fill="none" xmlns="http://www.w3.org/2000/svg">
<path d="M9.00008 6.33333L8.21675 8.05L6.50008 8.83333L8.21675 9.61667L9.00008 11.3333L9.78341 9.61667L11.5001 8.83333L9.78341 8.05L9.00008 6.33333ZM15.6667 2.16667H13.0251L11.5001 0.5H6.50008L4.97508 2.16667H2.33341C1.41675 2.16667 0.666748 2.91667 0.666748 3.83333V13.8333C0.666748 14.75 1.41675 15.5 2.33341 15.5H15.6667C16.5834 15.5 17.3334 14.75 17.3334 13.8333V3.83333C17.3334 2.91667 16.5834 2.16667 15.6667 2.16667ZM15.6667 13.8333H2.33341V3.83333H5.70842L6.20008 3.29167L7.23342 2.16667H10.7667L11.8001 3.29167L12.2917 3.83333H15.6667V13.8333ZM9.00008 4.66667C6.70008 4.66667 4.83342 6.53333 4.83342 8.83333C4.83342 11.1333 6.70008 13 9.00008 13C11.3001 13 13.1667 11.1333 13.1667 8.83333C13.1667 6.53333 11.3001 4.66667 9.00008 4.66667ZM9.00008 11.3333C7.62508 11.3333 6.50008 10.2083 6.50008 8.83333C6.50008 7.45833 7.62508 6.33333 9.00008 6.33333C10.3751 6.33333 11.5001 7.45833 11.5001 8.83333C11.5001 10.2083 10.3751 11.3333 9.00008 11.3333Z" fill="white"/>
</svg>
