<svg width="18" height="17" viewBox="0 0 18 17" fill="none" xmlns="http://www.w3.org/2000/svg">
<path d="M2.21419 16.1252C2.09336 16.1252 1.976 16.1235 1.861 16.1194C1.44434 16.1094 1.07923 15.8426 0.936727 15.4401C0.793394 15.0351 0.911816 14.5944 1.23682 14.3177C2.01348 13.691 2.32418 12.9977 2.44918 12.5219C1.41834 11.2894 0.874268 9.73348 0.874268 8.00098C0.874268 3.70681 4.21593 0.708496 8.99927 0.708496C13.7826 0.708496 17.1243 3.70764 17.1243 8.00098C17.1243 12.2943 13.7826 15.2935 8.99927 15.2935C8.0101 15.2935 7.06173 15.1593 6.1709 14.8943C5.03507 15.8835 3.47003 16.1252 2.21419 16.1252ZM1.89844 14.8694H1.90332C1.90082 14.8702 1.89844 14.8694 1.89844 14.8694ZM9.00008 1.9585C4.95258 1.9585 2.12508 4.44348 2.12508 8.00098C2.12508 9.53098 2.62923 10.886 3.58423 11.9193C3.7134 12.0593 3.77251 12.251 3.74251 12.4402C3.60251 13.3327 3.16267 14.1769 2.486 14.8694C3.45267 14.8344 4.75261 14.6119 5.55261 13.7585C5.72011 13.5785 5.98011 13.5143 6.21261 13.5952C7.07511 13.8935 8.01258 14.0444 9.00008 14.0444C13.0476 14.0444 15.8751 11.5593 15.8751 8.00179C15.8751 4.44429 13.0476 1.9585 9.00008 1.9585ZM9.8501 8.00016C9.8501 7.54016 9.4776 7.16683 9.01676 7.16683H9.00842C8.54842 7.16683 8.17916 7.54016 8.17916 8.00016C8.17916 8.46016 8.55676 8.8335 9.01676 8.8335C9.47676 8.8335 9.8501 8.46016 9.8501 8.00016ZM13.1834 8.00016C13.1834 7.54016 12.8109 7.16683 12.3501 7.16683H12.3418C11.8818 7.16683 11.5125 7.54016 11.5125 8.00016C11.5125 8.46016 11.8901 8.8335 12.3501 8.8335C12.8101 8.8335 13.1834 8.46016 13.1834 8.00016ZM6.51676 8.00016C6.51676 7.54016 6.14426 7.16683 5.68343 7.16683H5.67509C5.21509 7.16683 4.84583 7.54016 4.84583 8.00016C4.84583 8.46016 5.22343 8.8335 5.68343 8.8335C6.14343 8.8335 6.51676 8.46016 6.51676 8.00016Z" fill="black" fill-opacity="0.8"/>
</svg>
