<svg width="40" height="40" viewBox="0 0 40 40" fill="none" xmlns="http://www.w3.org/2000/svg">
<rect width="40" height="40" rx="20" fill="#6F7384"/>
<path d="M17.5075 18.9583C15.5542 18.9583 13.9658 17.3692 13.9658 15.4167C13.9658 13.4642 15.5542 11.875 17.5075 11.875C19.4608 11.875 21.0492 13.4642 21.0492 15.4167C21.0492 17.3692 19.4608 18.9583 17.5075 18.9583ZM17.5075 13.125C16.2433 13.125 15.2158 14.1525 15.2158 15.4167C15.2158 16.6808 16.2433 17.7083 17.5075 17.7083C18.7717 17.7083 19.7992 16.6808 19.7992 15.4167C19.7992 14.1525 18.7708 13.125 17.5075 13.125ZM20.8307 28.125H14.1692C12.1525 28.125 11.0416 27.0209 11.0416 25.0159C11.0416 22.7984 12.2966 20.2083 15.8333 20.2083H19.1666C22.7033 20.2083 23.9583 22.7975 23.9583 25.0159C23.9583 27.0209 22.8474 28.125 20.8307 28.125ZM15.8333 21.4583C12.5475 21.4583 12.2916 24.1809 12.2916 25.0159C12.2916 26.3192 12.8533 26.875 14.1692 26.875H20.8307C22.1466 26.875 22.7083 26.3192 22.7083 25.0159C22.7083 24.1817 22.4525 21.4583 19.1666 21.4583H15.8333ZM23.8 19.325C23.0425 19.325 22.3308 19.0366 21.7966 18.5133C21.55 18.2716 21.545 17.8759 21.7867 17.6292C22.0292 17.3825 22.4249 17.3792 22.6708 17.62C22.9699 17.9134 23.3717 18.075 23.8 18.075C24.7208 18.075 25.4425 17.3541 25.4425 16.4333C25.4425 15.5283 24.7058 14.7917 23.8 14.7917C23.5433 14.7917 23.3117 14.8442 23.1108 14.9475C22.805 15.1058 22.4275 14.9842 22.2691 14.6775C22.1108 14.3709 22.2325 13.9942 22.5391 13.8359C22.9191 13.6409 23.3433 13.5417 23.8 13.5417C25.395 13.5417 26.6925 14.8391 26.6925 16.4333C26.6916 18.0275 25.395 19.325 23.8 19.325ZM26.3833 26.4583H25.8166C25.4716 26.4583 25.1916 26.1783 25.1916 25.8333C25.1916 25.4883 25.4716 25.2083 25.8166 25.2083H26.3833C27.3375 25.2083 27.7083 24.8417 27.7083 23.9C27.7083 23.2842 27.5191 21.275 25.0916 21.275H23.8325C23.4875 21.275 23.2075 20.995 23.2075 20.65C23.2075 20.305 23.4875 20.025 23.8325 20.025H25.0916C27.9458 20.025 28.9583 22.1125 28.9583 23.9C28.9583 25.5259 28.02 26.4583 26.3833 26.4583Z" fill="white"/>
</svg>
