<svg width="51" height="29" viewBox="0 0 51 29" fill="none" xmlns="http://www.w3.org/2000/svg">
<rect x="0.666748" y="0.5" width="50" height="28" rx="14" fill="#E6E6E6"/>
<path d="M30.0216 12.0011C30.4767 12.4472 31.0855 12.6899 31.7268 12.6899C33.1076 12.6899 34.1978 11.6014 34.1978 10.22C34.1978 8.85767 33.0898 7.75 31.7268 7.75C31.3499 7.75 30.9917 7.82742 30.671 7.99241L30.6699 7.99299C30.5505 8.05482 30.3984 8.00825 30.334 7.88365C30.2718 7.76301 30.3185 7.61192 30.4427 7.54752M30.0216 12.0011L30.3717 11.644M30.0216 12.0011C30.0217 12.0011 30.0218 12.0012 30.0218 12.0012L30.3717 11.644M30.0216 12.0011C29.924 11.9055 29.7655 11.906 29.6676 12.0053M30.3717 11.644C30.0767 11.355 29.6018 11.359 29.3108 11.655M30.3717 11.644C30.7307 11.996 31.2128 12.1899 31.7268 12.1899C32.8318 12.1899 33.6978 11.325 33.6978 10.22C33.6978 9.13397 32.8138 8.25 31.7268 8.25C31.4188 8.25 31.1408 8.31301 30.8998 8.43701C30.5328 8.62701 30.0798 8.48104 29.8898 8.11304C29.6998 7.74504 29.8457 7.29303 30.2137 7.10303M29.6676 12.0053C29.6677 12.0052 29.6678 12.005 29.6679 12.0049L29.3108 11.655M29.6676 12.0053C29.5721 12.1031 29.5731 12.2612 29.6727 12.3588C30.2189 12.8939 30.9467 13.1899 31.7268 13.1899C33.3645 13.1899 34.6969 11.8569 34.6978 10.2197C34.6976 8.58306 33.3647 7.25 31.7268 7.25C31.2531 7.25 30.8233 7.35238 30.4427 7.54752M29.6676 12.0053C29.6675 12.0054 29.6674 12.0055 29.6673 12.0056L29.3108 11.655M29.3108 11.655C29.0208 11.951 29.0268 12.4259 29.3228 12.7159C29.9638 13.3439 30.8178 13.6899 31.7268 13.6899C33.6408 13.6899 35.1968 12.133 35.1978 10.22L30.2137 7.10303M30.2137 7.10303L30.442 7.54788C30.4423 7.54776 30.4425 7.54764 30.4427 7.54752M30.2137 7.10303L30.4431 7.54731C30.443 7.54738 30.4429 7.54745 30.4427 7.54752M24.1758 12.75C22.108 12.75 20.4258 11.0669 20.4258 9C20.4258 6.93307 22.108 5.25 24.1758 5.25C26.2436 5.25 27.9258 6.93307 27.9258 9C27.9258 11.0669 26.2436 12.75 24.1758 12.75ZM28.1637 23.75H20.1698C19.0484 23.75 18.2534 23.4443 17.7383 22.9322C17.2236 22.4205 16.9167 21.6319 16.9167 20.519C16.9167 19.2737 17.2704 17.9525 18.0874 16.9531C18.8907 15.9702 20.1805 15.25 22.1667 15.25H26.1667C28.153 15.25 29.4428 15.97 30.2461 16.9527C31.063 17.952 31.4167 19.2731 31.4167 20.519C31.4167 21.6319 31.1099 22.4205 30.5952 22.9322C30.0801 23.4443 29.2851 23.75 28.1637 23.75ZM23.728 21.75C23.6308 21.6395 23.5115 21.5623 23.4089 21.5125C23.1903 21.4064 22.9254 21.3557 22.6799 21.33C22.1781 21.2775 21.5774 21.3129 21.1167 21.3794C20.8874 21.4125 20.6694 21.4565 20.504 21.5103C20.4292 21.5346 20.323 21.5739 20.2306 21.6386C20.2022 21.6585 20.1548 21.6946 20.109 21.75H19.9258C19.8139 21.75 19.6985 21.7563 19.5958 21.7792C19.5454 21.7904 19.4718 21.8113 19.3968 21.8547C19.3233 21.8972 19.2 21.9908 19.1455 22.1642C19.088 22.3471 19.1422 22.504 19.1932 22.5937C19.2411 22.678 19.3019 22.7349 19.3402 22.767C19.4189 22.8331 19.5114 22.8834 19.5878 22.9203C19.8983 23.0701 20.4332 23.2268 20.9893 23.3284C21.5451 23.4299 22.1954 23.4902 22.7295 23.4033C22.9954 23.3601 23.2819 23.2728 23.5116 23.0916C23.6312 22.9973 23.7286 22.8825 23.7979 22.75H25.0258C25.0825 22.8678 25.1607 22.9739 25.2594 23.0655C25.4682 23.2593 25.7316 23.3542 25.9735 23.4008C26.4526 23.493 27.0221 23.4282 27.4903 23.3247C27.9521 23.2226 28.4168 23.0598 28.6777 22.8861C28.7405 22.8443 28.8415 22.77 28.915 22.6577C28.9544 22.5975 29.0042 22.4984 29.0099 22.3687C29.0162 22.2255 28.9665 22.0949 28.8844 21.9956C28.8655 21.9728 28.8456 21.9524 28.8252 21.934C28.8165 21.9067 28.8057 21.8801 28.793 21.8547C28.7338 21.7371 28.6461 21.6691 28.6027 21.6387C28.5103 21.574 28.4041 21.5348 28.3294 21.5105C28.164 21.4568 27.946 21.4128 27.7167 21.3797C27.256 21.3133 26.6554 21.2779 26.1536 21.3304C25.9081 21.3561 25.6433 21.4068 25.4248 21.5127C25.3223 21.5624 25.2029 21.6395 25.1057 21.75H23.728ZM28.2945 22.7574C28.3058 22.7597 28.3029 22.7603 28.2905 22.7567C28.2922 22.7569 28.2935 22.7572 28.2945 22.7574ZM34.8268 21.75H34.1467C34.0089 21.75 33.8967 21.6379 33.8967 21.5C33.8967 21.3621 34.0089 21.25 34.1467 21.25H34.8268C35.4439 21.25 36.007 21.1352 36.4025 20.7445C36.7996 20.3523 36.9167 19.7923 36.9167 19.1801C36.9167 18.7759 36.8576 17.8795 36.3668 17.069C35.8517 16.2181 34.901 15.53 33.2767 15.53H31.7657C31.6279 15.53 31.5157 15.4179 31.5157 15.28C31.5157 15.1422 31.6279 15.03 31.7657 15.03H33.2767C34.8537 15.03 35.866 15.5997 36.4942 16.3673C37.1358 17.1515 37.4167 18.1928 37.4167 19.1801C37.4167 20.0602 37.1646 20.6859 36.7558 21.092C36.3467 21.4985 35.7152 21.75 34.8268 21.75Z" fill="black" stroke="black"/>
</svg>
