<svg width="23" height="21" viewBox="0 0 23 21" fill="none" xmlns="http://www.w3.org/2000/svg">
<path d="M8.67578 9.25C6.33178 9.25 4.42578 7.343 4.42578 5C4.42578 2.657 6.33178 0.75 8.67578 0.75C11.0198 0.75 12.9258 2.657 12.9258 5C12.9258 7.343 11.0198 9.25 8.67578 9.25ZM8.67578 2.25C7.15878 2.25 5.92578 3.483 5.92578 5C5.92578 6.517 7.15878 7.75 8.67578 7.75C10.1928 7.75 11.4258 6.517 11.4258 5C11.4258 3.483 10.1918 2.25 8.67578 2.25ZM12.6637 20.25H4.6698C2.2498 20.25 0.916748 18.925 0.916748 16.519C0.916748 13.858 2.42275 10.75 6.66675 10.75H10.6667C14.9107 10.75 16.4167 13.857 16.4167 16.519C16.4167 18.925 15.0837 20.25 12.6637 20.25ZM6.66675 12.25C2.72375 12.25 2.41675 15.517 2.41675 16.519C2.41675 18.083 3.0908 18.75 4.6698 18.75H12.6637C14.2427 18.75 14.9167 18.083 14.9167 16.519C14.9167 15.518 14.6097 12.25 10.6667 12.25H6.66675ZM16.2268 9.68994C15.3178 9.68994 14.4638 9.34394 13.8228 8.71594C13.5268 8.42594 13.5208 7.95103 13.8108 7.65503C14.1018 7.35903 14.5767 7.35504 14.8717 7.64404C15.2307 7.99604 15.7128 8.18994 16.2268 8.18994C17.3318 8.18994 18.1978 7.32497 18.1978 6.21997C18.1978 5.13397 17.3138 4.25 16.2268 4.25C15.9188 4.25 15.6408 4.31301 15.3998 4.43701C15.0328 4.62701 14.5798 4.48104 14.3898 4.11304C14.1998 3.74504 14.3457 3.29303 14.7137 3.10303C15.1697 2.86903 15.6788 2.75 16.2268 2.75C18.1408 2.75 19.6978 4.30697 19.6978 6.21997C19.6968 8.13297 18.1408 9.68994 16.2268 9.68994ZM19.3268 18.25H18.6467C18.2327 18.25 17.8967 17.914 17.8967 17.5C17.8967 17.086 18.2327 16.75 18.6467 16.75H19.3268C20.4718 16.75 20.9167 16.3101 20.9167 15.1801C20.9167 14.4411 20.6897 12.03 17.7767 12.03H16.2657C15.8517 12.03 15.5157 11.694 15.5157 11.28C15.5157 10.866 15.8517 10.53 16.2657 10.53H17.7767C21.2017 10.53 22.4167 13.0351 22.4167 15.1801C22.4167 17.1311 21.2908 18.25 19.3268 18.25Z" fill="#8F8F8F"/>
</svg>
