<svg width="21" height="24" viewBox="0 0 21 24" fill="none" xmlns="http://www.w3.org/2000/svg">
<path d="M17.2981 2H5.45192C3.06492 2 1.75 3.52229 1.75 6.28571V17.7143C1.75 20.4777 3.06492 22 5.45192 22H17.2981C19.6851 22 21 20.4777 21 17.7143V6.28571C21 3.52229 19.6851 2 17.2981 2ZM5.45192 3.71429H17.2981C18.8549 3.71429 19.5192 4.48343 19.5192 6.28571V13.3588L15.5606 8.77706C14.9091 8.02164 13.764 8.02164 13.1124 8.77706L8.41346 14.216L7.6632 13.3485C7.01166 12.5931 5.86655 12.5931 5.21501 13.3485L3.23077 15.6456V6.28571C3.23077 4.48343 3.89514 3.71429 5.45192 3.71429ZM17.2981 20.2857H5.45192C3.99879 20.2857 3.33143 19.6045 3.24752 18.0491L6.26136 14.56C6.38673 14.416 6.49039 14.416 6.61576 14.56L7.54281 15.6331C8.00382 16.1679 8.82218 16.1668 9.28122 15.6331L14.1578 9.98744C14.2832 9.84344 14.3869 9.84344 14.5122 9.98744L19.5173 15.7818V17.7143C19.5193 19.5166 18.8549 20.2857 17.2981 20.2857ZM6.19231 8.57143C6.19231 7.78286 6.74513 7.14286 7.42628 7.14286C8.10744 7.14286 8.66026 7.78286 8.66026 8.57143C8.66026 9.36 8.10744 10 7.42628 10C6.74513 10 6.19231 9.36 6.19231 8.57143Z" fill="#25314C"/>
</svg>
