<svg width="25" height="25" viewBox="0 0 25 25" fill="none" xmlns="http://www.w3.org/2000/svg">
<path d="M3.36453 15.9643L4.0609 15.7429L3.36453 15.9643ZM2.30588 9.95481L3.00976 10.151L2.30588 9.95481ZM6.72659 5.3893L6.29097 4.80263H6.29097L6.72659 5.3893ZM2.41387 9.61512L3.10181 9.86146L2.41387 9.61512ZM6.24704 21.672L5.83339 22.2743H5.83339L6.24704 21.672ZM5.9643 21.462L5.50735 22.0322L5.9643 21.462ZM20.9685 15.9643L20.2721 15.7429L20.9685 15.9643ZM18.3687 21.462L18.8257 22.0322L18.3687 21.462ZM18.086 21.672L18.4996 22.2743L18.086 21.672ZM17.6064 5.3893L18.042 4.80263L17.6064 5.3893ZM21.9191 9.61512L21.2312 9.86146L21.9191 9.61512ZM22.0271 9.95481L21.3232 10.151L22.0271 9.95481ZM12.3412 2.50327L12.3139 3.23348L12.3412 2.50327ZM11.9918 2.50327L12.0191 3.23348L11.9918 2.50327ZM10.2599 17.1822C9.85632 17.1822 9.52917 17.5093 9.52917 17.9129C9.52917 18.3164 9.85632 18.6436 10.2599 18.6436V17.1822ZM14.0731 18.6436C14.4767 18.6436 14.8038 18.3164 14.8038 17.9129C14.8038 17.5093 14.4767 17.1822 14.0731 17.1822V18.6436ZM4.0609 15.7429C3.57065 14.2009 3.22111 13.0983 3.03766 12.2029C2.85756 11.3239 2.85332 10.7123 3.00976 10.151L1.60199 9.75863C1.36048 10.6252 1.40003 11.4911 1.60597 12.4963C1.80857 13.4851 2.18734 14.6733 2.66816 16.1857L4.0609 15.7429ZM6.29097 4.80263C5.03257 5.73703 4.04146 6.47171 3.30766 7.15108C2.56083 7.84252 2.02936 8.52142 1.72593 9.36878L3.10181 9.86146C3.29764 9.3146 3.65137 8.82446 4.30051 8.22347C4.96268 7.61042 5.87829 6.92931 7.1622 5.97597L6.29097 4.80263ZM3.00976 10.151C3.03698 10.0533 3.06768 9.95677 3.10181 9.86146L1.72593 9.36878C1.67996 9.49716 1.63862 9.6272 1.60199 9.75863L3.00976 10.151ZM12.1665 21.7693C10.579 21.7693 9.44776 21.7683 8.5608 21.6702C7.69175 21.5741 7.12851 21.3909 6.6607 21.0696L5.83339 22.2743C6.57134 22.7811 7.3966 23.0118 8.40023 23.1228C9.38593 23.2317 10.6115 23.2307 12.1665 23.2307V21.7693ZM2.66816 16.1857C3.14895 17.698 3.52595 18.8869 3.93085 19.8089C4.34227 20.7456 4.80946 21.473 5.50735 22.0322L6.42126 20.8918C5.97599 20.535 5.62882 20.0407 5.26892 19.2212C4.90249 18.3869 4.55118 17.285 4.0609 15.7429L2.66816 16.1857ZM6.6607 21.0696C6.57882 21.0134 6.49895 20.9541 6.42126 20.8918L5.50735 22.0322C5.61307 22.1169 5.72182 22.1977 5.83339 22.2743L6.6607 21.0696ZM20.2721 15.7429C19.7818 17.285 19.4305 18.3869 19.0641 19.2212C18.7042 20.0407 18.357 20.535 17.9118 20.8918L18.8257 22.0322C19.5236 21.473 19.9907 20.7456 20.4022 19.8089C20.8071 18.8869 21.1841 17.698 21.6648 16.1857L20.2721 15.7429ZM12.1665 23.2307C13.7215 23.2307 14.9471 23.2317 15.9328 23.1228C16.9364 23.0118 17.7617 22.7811 18.4996 22.2743L17.6723 21.0696C17.2045 21.3909 16.6413 21.5741 15.7722 21.6702C14.8852 21.7683 13.754 21.7693 12.1665 21.7693V23.2307ZM17.9118 20.8918C17.8341 20.9541 17.7542 21.0134 17.6723 21.0696L18.4996 22.2743C18.6112 22.1977 18.7199 22.1169 18.8257 22.0322L17.9118 20.8918ZM17.1708 5.97597C18.4547 6.92931 19.3703 7.61042 20.0325 8.22347C20.6816 8.82446 21.0354 9.3146 21.2312 9.86146L22.6071 9.36878C22.3036 8.52142 21.7722 7.84252 21.0253 7.15108C20.2916 6.47171 19.3004 5.73703 18.042 4.80263L17.1708 5.97597ZM21.6648 16.1857C22.1457 14.6733 22.5244 13.4851 22.727 12.4963C22.933 11.4911 22.9725 10.6252 22.731 9.75863L21.3232 10.151C21.4797 10.7123 21.4754 11.3239 21.2953 12.2029C21.1119 13.0983 20.7624 14.2009 20.2721 15.7429L21.6648 16.1857ZM21.2312 9.86146C21.2653 9.95676 21.296 10.0533 21.3232 10.151L22.731 9.75863C22.6944 9.6272 22.653 9.49716 22.6071 9.36878L21.2312 9.86146ZM18.042 4.80263C16.7838 3.86835 15.7936 3.13187 14.9343 2.62834C14.0602 2.1162 13.2597 1.80648 12.3686 1.77307L12.3139 3.23348C12.8745 3.2545 13.4354 3.44392 14.1955 3.88926C14.9702 4.3432 15.8867 5.02252 17.1708 5.97597L18.042 4.80263ZM7.1622 5.97597C8.44626 5.02252 9.36283 4.3432 10.1376 3.88926C10.8976 3.44392 11.4585 3.2545 12.0191 3.23348L11.9644 1.77307C11.0733 1.80648 10.2728 2.1162 9.39873 2.62834C8.53937 3.13187 7.54921 3.86835 6.29097 4.80263L7.1622 5.97597ZM12.3686 1.77307C12.2339 1.76802 12.0991 1.76802 11.9644 1.77307L12.0191 3.23348C12.1173 3.22979 12.2157 3.22979 12.3139 3.23348L12.3686 1.77307ZM10.2599 18.6436H14.0731V17.1822H10.2599V18.6436Z" fill="#8F8F8F"/>
</svg>
