<svg width="25" height="25" viewBox="0 0 25 25" fill="none" xmlns="http://www.w3.org/2000/svg">
<path fill-rule="evenodd" clip-rule="evenodd" d="M6.72683 5.3893C4.18452 7.27703 2.91337 8.2209 2.41412 9.61512C2.37407 9.72696 2.33804 9.84027 2.30612 9.95481C1.90816 11.3827 2.3937 12.9099 3.36478 15.9643C4.33585 19.0187 4.82139 20.5459 5.96455 21.462C6.05625 21.5355 6.15056 21.6055 6.24729 21.672C7.45305 22.5 9.02428 22.5 12.1667 22.5C15.3092 22.5 16.8804 22.5 18.0862 21.672C18.1829 21.6055 18.2772 21.5355 18.3689 21.462C19.5121 20.5459 19.9976 19.0187 20.9687 15.9643C21.9398 12.9099 22.4253 11.3827 22.0274 9.95481C21.9955 9.84027 21.9594 9.72696 21.9194 9.61512C21.4201 8.2209 20.149 7.27704 17.6067 5.38931C15.0644 3.50158 13.7932 2.5577 12.3415 2.50327C12.225 2.49891 12.1085 2.49891 11.992 2.50327C10.5403 2.5577 9.26913 3.50157 6.72683 5.3893ZM10.2601 17.1821C9.86525 17.1821 9.54514 17.5093 9.54514 17.9129C9.54514 18.3164 9.86525 18.6436 10.2601 18.6436H14.0734C14.4682 18.6436 14.7883 18.3164 14.7883 17.9129C14.7883 17.5093 14.4682 17.1821 14.0734 17.1821H10.2601Z" fill="black"/>
</svg>
