<svg width="88" height="64" viewBox="0 0 88 64" fill="none" xmlns="http://www.w3.org/2000/svg">
<path d="M35.365 25.9643L36.0614 25.7429L35.365 25.9643ZM34.3064 19.9548L35.0103 20.151L34.3064 19.9548ZM38.7271 15.3893L38.2915 14.8026H38.2915L38.7271 15.3893ZM34.4144 19.6151L35.1023 19.8615L34.4144 19.6151ZM38.2475 31.672L37.8339 32.2743H37.8339L38.2475 31.672ZM37.9648 31.462L37.5078 32.0322L37.9648 31.462ZM52.969 25.9643L52.2726 25.7429L52.969 25.9643ZM50.3692 31.462L50.8261 32.0322L50.3692 31.462ZM50.0865 31.672L50.5001 32.2743L50.0865 31.672ZM49.6069 15.3893L50.0425 14.8026L49.6069 15.3893ZM53.9196 19.6151L53.2317 19.8615L53.9196 19.6151ZM54.0276 19.9548L53.3237 20.151L54.0276 19.9548ZM44.3417 12.5033L44.3144 13.2335L44.3417 12.5033ZM43.9922 12.5033L44.0196 13.2335L43.9922 12.5033ZM42.2604 27.1822C41.8568 27.1822 41.5297 27.5093 41.5297 27.9129C41.5297 28.3164 41.8568 28.6436 42.2604 28.6436V27.1822ZM46.0736 28.6436C46.4772 28.6436 46.8043 28.3164 46.8043 27.9129C46.8043 27.5093 46.4772 27.1822 46.0736 27.1822V28.6436ZM36.0614 25.7429C35.5711 24.2009 35.2216 23.0983 35.0381 22.2029C34.858 21.3239 34.8538 20.7123 35.0103 20.151L33.6025 19.7586C33.361 20.6252 33.4005 21.4911 33.6065 22.4963C33.8091 23.4851 34.1878 24.6733 34.6687 26.1857L36.0614 25.7429ZM38.2915 14.8026C37.0331 15.737 36.0419 16.4717 35.3081 17.1511C34.5613 17.8425 34.0299 18.5214 33.7264 19.3688L35.1023 19.8615C35.2981 19.3146 35.6519 18.8245 36.301 18.2235C36.9632 17.6104 37.8788 16.9293 39.1627 15.976L38.2915 14.8026ZM35.0103 20.151C35.0375 20.0533 35.0682 19.9568 35.1023 19.8615L33.7264 19.3688C33.6805 19.4972 33.6391 19.6272 33.6025 19.7586L35.0103 20.151ZM44.167 31.7693C42.5795 31.7693 41.4483 31.7683 40.5613 31.6702C39.6922 31.5741 39.129 31.3909 38.6612 31.0696L37.8339 32.2743C38.5718 32.7811 39.3971 33.0118 40.4007 33.1228C41.3864 33.2317 42.612 33.2307 44.167 33.2307V31.7693ZM34.6687 26.1857C35.1494 27.698 35.5264 28.8869 35.9313 29.8089C36.3428 30.7456 36.8099 31.473 37.5078 32.0322L38.4217 30.8918C37.9765 30.535 37.6293 30.0407 37.2694 29.2212C36.903 28.3869 36.5517 27.285 36.0614 25.7429L34.6687 26.1857ZM38.6612 31.0696C38.5793 31.0134 38.4994 30.9541 38.4217 30.8918L37.5078 32.0322C37.6136 32.1169 37.7223 32.1977 37.8339 32.2743L38.6612 31.0696ZM52.2726 25.7429C51.7823 27.285 51.431 28.3869 51.0646 29.2212C50.7047 30.0407 50.3575 30.535 49.9122 30.8918L50.8261 32.0322C51.524 31.473 51.9912 30.7456 52.4026 29.8089C52.8075 28.8869 53.1845 27.698 53.6653 26.1857L52.2726 25.7429ZM44.167 33.2307C45.722 33.2307 46.9476 33.2317 47.9333 33.1228C48.9369 33.0118 49.7622 32.7811 50.5001 32.2743L49.6728 31.0696C49.205 31.3909 48.6417 31.5741 47.7727 31.6702C46.8857 31.7683 45.7544 31.7693 44.167 31.7693V33.2307ZM49.9122 30.8918C49.8345 30.9541 49.7547 31.0134 49.6728 31.0696L50.5001 32.2743C50.6117 32.1977 50.7204 32.1169 50.8261 32.0322L49.9122 30.8918ZM49.1713 15.976C50.4552 16.9293 51.3708 17.6104 52.033 18.2235C52.6821 18.8245 53.0359 19.3146 53.2317 19.8615L54.6076 19.3688C54.3041 18.5214 53.7727 17.8425 53.0258 17.1511C52.292 16.4717 51.3009 15.737 50.0425 14.8026L49.1713 15.976ZM53.6653 26.1857C54.1462 24.6733 54.5249 23.4851 54.7275 22.4963C54.9335 21.4911 54.973 20.6252 54.7315 19.7586L53.3237 20.151C53.4802 20.7123 53.4759 21.3239 53.2958 22.2029C53.1124 23.0983 52.7628 24.2009 52.2726 25.7429L53.6653 26.1857ZM53.2317 19.8615C53.2658 19.9568 53.2965 20.0533 53.3237 20.151L54.7315 19.7586C54.6949 19.6272 54.6535 19.4972 54.6076 19.3688L53.2317 19.8615ZM50.0425 14.8026C48.7843 13.8684 47.7941 13.1319 46.9348 12.6283C46.0607 12.1162 45.2602 11.8065 44.3691 11.7731L44.3144 13.2335C44.875 13.2545 45.4359 13.4439 46.1959 13.8893C46.9707 14.3432 47.8872 15.0225 49.1713 15.976L50.0425 14.8026ZM39.1627 15.976C40.4468 15.0225 41.3633 14.3432 42.138 13.8893C42.8981 13.4439 43.459 13.2545 44.0196 13.2335L43.9649 11.7731C43.0738 11.8065 42.2733 12.1162 41.3992 12.6283C40.5399 13.1319 39.5497 13.8684 38.2915 14.8026L39.1627 15.976ZM44.3691 11.7731C44.2344 11.768 44.0996 11.768 43.9649 11.7731L44.0196 13.2335C44.1178 13.2298 44.2161 13.2298 44.3144 13.2335L44.3691 11.7731ZM42.2604 28.6436H46.0736V27.1822H42.2604V28.6436Z" fill="#8F8F8F"/>
<path d="M29.195 49.5H27.743C26.699 49.5 25.847 48.792 25.571 47.724C25.151 48.324 24.635 48.624 24.035 48.624C22.499 48.624 21.551 47.472 21.551 45.804C21.551 44.004 22.499 42.888 24.035 42.888H26.999V46.692C26.999 47.628 27.443 48.132 28.343 48.132H29.195V49.5ZM25.607 45.672V43.932H24.395C23.459 43.932 22.883 44.676 22.883 45.792C22.883 46.716 23.399 47.508 24.203 47.508C25.079 47.508 25.607 46.692 25.607 45.672ZM24.623 41.916H23.303V40.572H24.623V41.916ZM26.891 41.916H25.571V40.572H26.891V41.916ZM34.358 49.5H28.826V48.132H30.11C30.506 48.132 30.782 48 30.926 47.724C31.022 47.544 31.07 47.232 31.07 46.812V44.052H32.402V46.74C32.402 47.448 32.306 47.904 32.102 48.132H34.358V49.5ZM32.354 52.128H31.034V50.784H32.354V52.128ZM30.086 52.128H28.766V50.784H30.086V52.128ZM33.9577 49.5V48.132H35.1817C35.8657 48.132 36.2017 47.664 36.2017 46.716V44.052H37.5577V46.668C37.5577 47.376 37.4857 47.832 37.3417 48.06V48.132H38.5897C39.2737 48.132 39.6097 47.688 39.6097 46.8V44.052H40.9657V46.668C40.9657 47.448 40.8697 47.94 40.6897 48.132H41.9977C42.6817 48.132 43.0177 47.688 43.0177 46.812V44.052H44.3737V46.644C44.3737 47.208 44.2777 47.7 44.0737 48.132H46.1257V49.5H33.9577ZM51.2447 49.5H45.7127V48.132H46.9967C47.3927 48.132 47.6687 48 47.8127 47.724C47.9087 47.544 47.9567 47.232 47.9567 46.812V44.052H49.2887V46.74C49.2887 47.448 49.1927 47.904 48.9887 48.132H51.2447V49.5ZM49.2407 52.128H47.9207V50.784H49.2407V52.128ZM46.9727 52.128H45.6527V50.784H46.9727V52.128ZM54.3244 44.04H51.3364V43.236H51.9844C51.9004 43.056 51.8644 42.852 51.8644 42.636C51.8644 41.88 52.4044 41.292 53.1604 41.292C53.6764 41.292 54.0484 41.532 54.2524 42.024L53.6884 42.396C53.6044 42.144 53.4364 42.024 53.1844 42.024C52.8244 42.024 52.6444 42.252 52.6444 42.708C52.6444 42.936 52.7044 43.104 52.8124 43.236H54.3244V44.04ZM54.3244 47.328C54.3244 48.78 53.6524 49.5 52.3084 49.5H51.0124V48.132H52.0324C52.4764 48.132 52.7524 48 52.8844 47.736C52.9444 47.592 52.9804 47.304 52.9804 46.872V44.736H54.3244V47.328ZM60.3095 49.5H58.1615C57.9575 50.784 56.8655 51.492 55.2335 51.492V50.34C56.3495 50.34 56.9015 49.788 56.9015 48.636V44.052H58.2455V48.132H60.3095V49.5ZM63.2658 47.328C63.2658 48.78 62.5938 49.5 61.2498 49.5H59.8338V48.132H60.9738C61.4178 48.132 61.6938 48 61.8258 47.736C61.8858 47.592 61.9218 47.304 61.9218 46.872V41.76H63.2658V47.328ZM65.8315 49.5H64.4995V41.748H65.8315V49.5Z" fill="#8F8F8F"/>
</svg>
