<svg width="113" height="64" viewBox="0 0 113 64" fill="none" xmlns="http://www.w3.org/2000/svg">
<path d="M53.6755 21.25C51.3315 21.25 49.4255 19.343 49.4255 17C49.4255 14.657 51.3315 12.75 53.6755 12.75C56.0195 12.75 57.9255 14.657 57.9255 17C57.9255 19.343 56.0195 21.25 53.6755 21.25ZM53.6755 14.25C52.1585 14.25 50.9255 15.483 50.9255 17C50.9255 18.517 52.1585 19.75 53.6755 19.75C55.1925 19.75 56.4255 18.517 56.4255 17C56.4255 15.483 55.1915 14.25 53.6755 14.25ZM57.6635 32.25H49.6696C47.2496 32.25 45.9165 30.925 45.9165 28.519C45.9165 25.858 47.4225 22.75 51.6665 22.75H55.6665C59.9105 22.75 61.4165 25.857 61.4165 28.519C61.4165 30.925 60.0835 32.25 57.6635 32.25ZM51.6665 24.25C47.7235 24.25 47.4165 27.517 47.4165 28.519C47.4165 30.083 48.0906 30.75 49.6696 30.75H57.6635C59.2425 30.75 59.9165 30.083 59.9165 28.519C59.9165 27.518 59.6095 24.25 55.6665 24.25H51.6665ZM61.2266 21.6899C60.3176 21.6899 59.4635 21.3439 58.8225 20.7159C58.5265 20.4259 58.5205 19.951 58.8105 19.655C59.1015 19.359 59.5765 19.355 59.8715 19.644C60.2305 19.996 60.7126 20.1899 61.2266 20.1899C62.3316 20.1899 63.1975 19.325 63.1975 18.22C63.1975 17.134 62.3136 16.25 61.2266 16.25C60.9186 16.25 60.6405 16.313 60.3995 16.437C60.0325 16.627 59.5795 16.481 59.3895 16.113C59.1995 15.745 59.3455 15.293 59.7135 15.103C60.1695 14.869 60.6786 14.75 61.2266 14.75C63.1406 14.75 64.6975 16.307 64.6975 18.22C64.6965 20.133 63.1406 21.6899 61.2266 21.6899ZM64.3265 30.25H63.6465C63.2325 30.25 62.8965 29.914 62.8965 29.5C62.8965 29.086 63.2325 28.75 63.6465 28.75H64.3265C65.4715 28.75 65.9165 28.3101 65.9165 27.1801C65.9165 26.4411 65.6895 24.03 62.7765 24.03H61.2655C60.8515 24.03 60.5155 23.694 60.5155 23.28C60.5155 22.866 60.8515 22.53 61.2655 22.53H62.7765C66.2015 22.53 67.4165 25.0351 67.4165 27.1801C67.4165 29.1311 66.2905 30.25 64.3265 30.25Z" fill="#8F8F8F"/>
<path d="M23.6945 49.5H22.2425C21.1985 49.5 20.3465 48.792 20.0705 47.724C19.6505 48.324 19.1345 48.624 18.5345 48.624C16.9985 48.624 16.0505 47.472 16.0505 45.804C16.0505 44.004 16.9985 42.888 18.5345 42.888C19.3865 42.888 19.8665 42.888 19.9745 42.876H21.4985V46.692C21.4985 47.652 21.9425 48.132 22.8425 48.132H23.6945V49.5ZM20.1065 45.672V43.932H18.8945C17.9585 43.932 17.3825 44.676 17.3825 45.792C17.3825 46.716 17.8985 47.508 18.7025 47.508C19.5785 47.508 20.1065 46.692 20.1065 45.672ZM29.4455 42.912H28.1375V41.58H29.4455V42.912ZM27.1655 42.912H25.8575V41.58H27.1655V42.912ZM30.3455 46.74C30.3455 48.324 29.2655 49.5 27.6575 49.5H23.3855V48.132H25.2935C25.0655 47.7 24.9455 47.22 24.9455 46.704C24.9455 45.072 26.0615 43.932 27.6575 43.932C29.2535 43.932 30.3455 45.168 30.3455 46.74ZM28.9655 46.74C28.9655 45.828 28.4135 45.156 27.6095 45.156C26.8415 45.156 26.3255 45.756 26.3255 46.692C26.3255 47.556 26.8775 48.264 27.6815 48.264C28.4615 48.264 28.9655 47.628 28.9655 46.74ZM32.9091 49.5H31.5771V41.748H32.9091V49.5ZM41.8235 49.5H34.0355V48.132H38.3795C38.3795 46.56 37.7675 45.648 36.5555 45.384C36.1835 45.3 35.7755 45.276 35.3435 45.276V44.052C36.0035 44.052 36.4235 44.064 36.5915 44.076C36.7595 44.088 36.9995 44.136 37.3115 44.244C38.9195 44.784 39.7235 46.08 39.7355 48.132H41.8235V49.5ZM52.824 49.5H40.92V48.132H42.264C42.948 48.132 43.284 47.664 43.284 46.716V44.628H44.628V46.296C45.696 44.844 47.016 44.028 48.312 44.028C50.34 44.028 51.372 45.408 51.408 48.132H52.824V49.5ZM50.016 48.132L50.04 47.748C50.04 46.2 49.32 45.228 48.18 45.228C46.836 45.228 45.408 46.476 44.664 48.132H50.016ZM55.9255 47.328C55.9255 48.78 55.2535 49.5 53.9095 49.5H52.4935V48.132H53.6335C54.0775 48.132 54.3535 48 54.4855 47.736C54.5455 47.592 54.5815 47.304 54.5815 46.872V41.76H55.9255V47.328ZM58.4911 49.5H57.1591V41.748H58.4911V49.5ZM72.1723 44.052V47.58C72.1723 48.78 71.5003 49.5 70.3123 49.5H65.9563C63.4123 49.5 62.1403 48.372 62.1403 46.104V44.052H63.4723V46.104C63.4723 46.884 63.7003 47.436 64.1563 47.748C64.5163 48 65.0683 48.132 65.8003 48.132H69.0883C69.7003 48.132 70.1203 48.06 70.3483 47.904C70.6843 47.688 70.8523 47.268 70.8523 46.656V44.052H72.1723ZM68.9323 44.04H67.6243V42.708H68.9323V44.04ZM66.6523 44.04H65.3443V42.708H66.6523V44.04ZM76.9648 49.5H75.3928C74.7448 49.5 74.2528 49.296 73.9048 48.876C73.5808 48.492 73.4248 47.976 73.4248 47.316V41.76H74.7568V46.776C74.7568 47.364 74.8888 47.748 75.1408 47.928C75.3208 48.06 75.6688 48.132 76.1728 48.132H76.9648V49.5ZM80.0452 52.14H78.7252V50.796H80.0452V52.14ZM82.0732 49.5H76.5292V48.132H77.7772C78.1732 48.132 78.4372 48 78.5812 47.724C78.6772 47.544 78.7252 47.232 78.7252 46.812V44.052H80.0572V46.74C80.0572 47.448 79.9612 47.904 79.7692 48.132H82.0732V49.5ZM87.1932 49.5H81.6972V48.132H82.9452C83.3412 48.132 83.6052 48 83.7492 47.724C83.8452 47.544 83.8932 47.232 83.8932 46.812V41.76H85.2252V46.74C85.2252 47.448 85.1292 47.904 84.9372 48.132H87.1932V49.5ZM96.8131 49.5H86.8651V48.132H89.0731V41.76H90.3931L90.2491 46.104C91.3531 44.676 92.5051 44.028 93.7651 44.028C95.8411 44.028 96.8731 45.444 96.8731 48.252C96.8731 48.648 96.8491 49.056 96.8131 49.5ZM95.4931 48.132V47.748C95.4931 46.224 94.8091 45.228 93.6451 45.228C92.2891 45.228 90.9331 46.428 90.1171 48.132H95.4931Z" fill="#8F8F8F"/>
</svg>
