<svg width="113" height="64" viewBox="0 0 113 64" fill="none" xmlns="http://www.w3.org/2000/svg">
<rect x="31.6665" y="8.5" width="50" height="28" rx="14" fill="#E6E6E6"/>
<path d="M61.0214 20.0011C61.4764 20.4472 62.0853 20.6899 62.7266 20.6899C64.1074 20.6899 65.1975 19.6014 65.1975 18.22C65.1975 16.8577 64.0895 15.75 62.7266 15.75C62.3497 15.75 61.9915 15.8274 61.6708 15.9924L61.6697 15.993C61.5502 16.0548 61.3981 16.0083 61.3338 15.8837C61.2715 15.763 61.3183 15.6119 61.4425 15.5475M61.0214 20.0011L61.3715 19.644M61.0214 20.0011C61.0215 20.0011 61.0215 20.0012 61.0216 20.0012L61.3715 19.644M61.0214 20.0011C60.9237 19.9055 60.7653 19.906 60.6674 20.0053M61.3715 19.644C61.0765 19.355 60.6015 19.359 60.3105 19.655M61.3715 19.644C61.7305 19.996 62.2126 20.1899 62.7266 20.1899C63.8316 20.1899 64.6975 19.325 64.6975 18.22C64.6975 17.134 63.8136 16.25 62.7266 16.25C62.4186 16.25 62.1405 16.313 61.8995 16.437C61.5325 16.627 61.0795 16.481 60.8895 16.113C60.6995 15.745 60.8455 15.293 61.2135 15.103M60.6674 20.0053C60.6675 20.0052 60.6676 20.005 60.6677 20.0049L60.3105 19.655M60.6674 20.0053C60.5719 20.1031 60.5728 20.2612 60.6724 20.3588C61.2186 20.8939 61.9465 21.1899 62.7266 21.1899C64.3643 21.1899 65.6967 19.8569 65.6975 18.2197C65.6974 16.5831 64.3644 15.25 62.7266 15.25C62.2529 15.25 61.823 15.3524 61.4425 15.5475M60.6674 20.0053C60.6673 20.0054 60.6672 20.0055 60.6671 20.0056L60.3105 19.655M60.3105 19.655C60.0205 19.951 60.0265 20.4259 60.3225 20.7159C60.9635 21.3439 61.8176 21.6899 62.7266 21.6899C64.6406 21.6899 66.1965 20.133 66.1975 18.22L61.2135 15.103M61.2135 15.103L61.4418 15.5479C61.442 15.5478 61.4422 15.5476 61.4425 15.5475M61.2135 15.103L61.4429 15.5473C61.4427 15.5474 61.4426 15.5474 61.4425 15.5475M55.1755 20.75C53.1078 20.75 51.4255 19.0669 51.4255 17C51.4255 14.9331 53.1078 13.25 55.1755 13.25C57.2433 13.25 58.9255 14.9331 58.9255 17C58.9255 19.0669 57.2433 20.75 55.1755 20.75ZM59.1635 31.75H51.1696C50.0481 31.75 49.2532 31.4443 48.738 30.9322C48.2233 30.4205 47.9165 29.6319 47.9165 28.519C47.9165 27.2737 48.2702 25.9525 49.0871 24.9531C49.8905 23.9702 51.1803 23.25 53.1665 23.25H57.1665C59.1528 23.25 60.4426 23.97 61.2459 24.9527C62.0628 25.952 62.4165 27.2731 62.4165 28.519C62.4165 29.6319 62.1097 30.4205 61.595 30.9322C61.0798 31.4443 60.2849 31.75 59.1635 31.75ZM54.7277 29.75C54.6305 29.6395 54.5112 29.5623 54.4086 29.5125C54.1901 29.4064 53.9252 29.3557 53.6797 29.33C53.1778 29.2775 52.5772 29.3129 52.1165 29.3794C51.8871 29.4125 51.6691 29.4565 51.5037 29.5103C51.429 29.5346 51.3228 29.5739 51.2304 29.6386C51.2019 29.6585 51.1546 29.6946 51.1087 29.75H50.9255C50.8136 29.75 50.6982 29.7563 50.5956 29.7792C50.5452 29.7904 50.4715 29.8113 50.3966 29.8547C50.3231 29.8972 50.1997 29.9908 50.1452 30.1642C50.0877 30.3471 50.142 30.504 50.193 30.5937C50.2409 30.678 50.3017 30.7349 50.34 30.767C50.4187 30.8331 50.5111 30.8834 50.5876 30.9203C50.8981 31.0701 51.433 31.2268 51.989 31.3284C52.5448 31.4299 53.1952 31.4902 53.7293 31.4033C53.9952 31.3601 54.2817 31.2728 54.5114 31.0916C54.631 30.9973 54.7283 30.8825 54.7977 30.75H56.0256C56.0822 30.8678 56.1605 30.9739 56.2592 31.0655C56.468 31.2593 56.7314 31.3542 56.9733 31.4008C57.4524 31.493 58.0218 31.4282 58.4901 31.3247C58.9518 31.2226 59.4166 31.0598 59.6775 30.8861C59.7402 30.8443 59.8413 30.77 59.9148 30.6577C59.9541 30.5975 60.0039 30.4984 60.0097 30.3687C60.016 30.2255 59.9662 30.0949 59.8841 29.9956C59.8653 29.9728 59.8454 29.9524 59.8249 29.934C59.8163 29.9067 59.8055 29.8801 59.7927 29.8547C59.7336 29.7371 59.6459 29.6691 59.6024 29.6387C59.51 29.574 59.4039 29.5348 59.3291 29.5105C59.1638 29.4568 58.9458 29.4128 58.7165 29.3797C58.2558 29.3133 57.6552 29.2779 57.1534 29.3304C56.9079 29.3561 56.643 29.4068 56.4245 29.5127C56.322 29.5624 56.2027 29.6395 56.1054 29.75H54.7277ZM59.2942 30.7574C59.3056 30.7597 59.3027 30.7603 59.2902 30.7567C59.2919 30.7569 59.2932 30.7572 59.2942 30.7574ZM65.8265 29.75H65.1465C65.0086 29.75 64.8965 29.6379 64.8965 29.5C64.8965 29.3621 65.0086 29.25 65.1465 29.25H65.8265C66.4437 29.25 67.0067 29.1352 67.4023 28.7445C67.7993 28.3523 67.9165 27.7923 67.9165 27.1801C67.9165 26.7759 67.8573 25.8795 67.3666 25.069C66.8514 24.2181 65.9007 23.53 64.2765 23.53H62.7655C62.6276 23.53 62.5155 23.4179 62.5155 23.28C62.5155 23.1422 62.6276 23.03 62.7655 23.03H64.2765C65.8534 23.03 66.8658 23.5997 67.4939 24.3673C68.1356 25.1515 68.4165 26.1928 68.4165 27.1801C68.4165 28.0602 68.1643 28.6859 67.7556 29.092C67.3464 29.4985 66.7149 29.75 65.8265 29.75Z" fill="black" stroke="black"/>
<path d="M23.6945 51.5H22.2425C21.1985 51.5 20.3465 50.792 20.0705 49.724C19.6505 50.324 19.1345 50.624 18.5345 50.624C16.9985 50.624 16.0505 49.472 16.0505 47.804C16.0505 46.004 16.9985 44.888 18.5345 44.888C19.3865 44.888 19.8665 44.888 19.9745 44.876H21.4985V48.692C21.4985 49.652 21.9425 50.132 22.8425 50.132H23.6945V51.5ZM20.1065 47.672V45.932H18.8945C17.9585 45.932 17.3825 46.676 17.3825 47.792C17.3825 48.716 17.8985 49.508 18.7025 49.508C19.5785 49.508 20.1065 48.692 20.1065 47.672ZM29.4455 44.912H28.1375V43.58H29.4455V44.912ZM27.1655 44.912H25.8575V43.58H27.1655V44.912ZM30.3455 48.74C30.3455 50.324 29.2655 51.5 27.6575 51.5H23.3855V50.132H25.2935C25.0655 49.7 24.9455 49.22 24.9455 48.704C24.9455 47.072 26.0615 45.932 27.6575 45.932C29.2535 45.932 30.3455 47.168 30.3455 48.74ZM28.9655 48.74C28.9655 47.828 28.4135 47.156 27.6095 47.156C26.8415 47.156 26.3255 47.756 26.3255 48.692C26.3255 49.556 26.8775 50.264 27.6815 50.264C28.4615 50.264 28.9655 49.628 28.9655 48.74ZM32.9091 51.5H31.5771V43.748H32.9091V51.5ZM41.8235 51.5H34.0355V50.132H38.3795C38.3795 48.56 37.7675 47.648 36.5555 47.384C36.1835 47.3 35.7755 47.276 35.3435 47.276V46.052C36.0035 46.052 36.4235 46.064 36.5915 46.076C36.7595 46.088 36.9995 46.136 37.3115 46.244C38.9195 46.784 39.7235 48.08 39.7355 50.132H41.8235V51.5ZM52.824 51.5H40.92V50.132H42.264C42.948 50.132 43.284 49.664 43.284 48.716V46.628H44.628V48.296C45.696 46.844 47.016 46.028 48.312 46.028C50.34 46.028 51.372 47.408 51.408 50.132H52.824V51.5ZM50.016 50.132L50.04 49.748C50.04 48.2 49.32 47.228 48.18 47.228C46.836 47.228 45.408 48.476 44.664 50.132H50.016ZM55.9255 49.328C55.9255 50.78 55.2535 51.5 53.9095 51.5H52.4935V50.132H53.6335C54.0775 50.132 54.3535 50 54.4855 49.736C54.5455 49.592 54.5815 49.304 54.5815 48.872V43.76H55.9255V49.328ZM58.4911 51.5H57.1591V43.748H58.4911V51.5ZM72.1723 46.052V49.58C72.1723 50.78 71.5003 51.5 70.3123 51.5H65.9563C63.4123 51.5 62.1403 50.372 62.1403 48.104V46.052H63.4723V48.104C63.4723 48.884 63.7003 49.436 64.1563 49.748C64.5163 50 65.0683 50.132 65.8003 50.132H69.0883C69.7003 50.132 70.1203 50.06 70.3483 49.904C70.6843 49.688 70.8523 49.268 70.8523 48.656V46.052H72.1723ZM68.9323 46.04H67.6243V44.708H68.9323V46.04ZM66.6523 46.04H65.3443V44.708H66.6523V46.04ZM76.9648 51.5H75.3928C74.7448 51.5 74.2528 51.296 73.9048 50.876C73.5808 50.492 73.4248 49.976 73.4248 49.316V43.76H74.7568V48.776C74.7568 49.364 74.8888 49.748 75.1408 49.928C75.3208 50.06 75.6688 50.132 76.1728 50.132H76.9648V51.5ZM80.0452 54.14H78.7252V52.796H80.0452V54.14ZM82.0732 51.5H76.5292V50.132H77.7772C78.1732 50.132 78.4372 50 78.5812 49.724C78.6772 49.544 78.7252 49.232 78.7252 48.812V46.052H80.0572V48.74C80.0572 49.448 79.9612 49.904 79.7692 50.132H82.0732V51.5ZM87.1932 51.5H81.6972V50.132H82.9452C83.3412 50.132 83.6052 50 83.7492 49.724C83.8452 49.544 83.8932 49.232 83.8932 48.812V43.76H85.2252V48.74C85.2252 49.448 85.1292 49.904 84.9372 50.132H87.1932V51.5ZM96.8131 51.5H86.8651V50.132H89.0731V43.76H90.3931L90.2491 48.104C91.3531 46.676 92.5051 46.028 93.7651 46.028C95.8411 46.028 96.8731 47.444 96.8731 50.252C96.8731 50.648 96.8491 51.056 96.8131 51.5ZM95.4931 50.132V49.748C95.4931 48.224 94.8091 47.228 93.6451 47.228C92.2891 47.228 90.9331 48.428 90.1171 50.132H95.4931Z" fill="black"/>
</svg>
