<svg width="89" height="64" viewBox="0 0 89 64" fill="none" xmlns="http://www.w3.org/2000/svg">
<path d="M52.5 30.5L48.3033 26.3033M50.5 21C50.5 16.8579 47.1421 13.5 43 13.5C38.8579 13.5 35.5 16.8579 35.5 21C35.5 25.1421 38.8579 28.5 43 28.5C47.1421 28.5 50.5 25.1421 50.5 21Z" stroke="#8F8F8F" stroke-width="2" stroke-linecap="round" stroke-linejoin="round"/>
<path d="M40.408 49.5H32.2C29.656 49.5 28.384 48.372 28.384 46.104V44.052H29.716V46.104C29.716 46.884 29.944 47.436 30.4 47.748C30.76 48 31.312 48.132 32.044 48.132H36.124C36.52 48.132 36.796 48 36.928 47.724C37.024 47.544 37.072 47.232 37.072 46.812V44.052H38.416V46.74C38.416 47.448 38.32 47.904 38.116 48.132H40.408V49.5ZM34.06 42.156H32.752V40.812H34.06V42.156ZM35.176 44.04H33.868V42.708H35.176V44.04ZM32.896 44.04H31.588V42.708H32.896V44.04ZM49.6784 49.5H40.0424V48.132H46.9784C46.9784 47.388 46.7744 46.752 46.3544 46.224C45.8624 45.612 45.1664 45.312 44.2904 45.312C43.9904 45.312 43.6544 45.384 43.2824 45.54C42.8504 45.72 42.4904 45.972 42.2024 46.296C42.0704 46.044 41.8544 45.696 41.5544 45.24C41.9264 44.892 42.3464 44.604 42.8384 44.388C43.3664 44.16 43.8944 44.052 44.4224 44.052C45.2504 44.052 45.9824 44.244 46.6064 44.628C47.6984 45.3 48.2984 46.464 48.4064 48.132H49.6784V49.5ZM52.8513 52.14H51.5313V50.796H52.8513V52.14ZM54.8793 49.5H49.3353V48.132H50.5833C50.9793 48.132 51.2433 48 51.3873 47.724C51.4833 47.544 51.5313 47.232 51.5313 46.812V44.052H52.8633V46.74C52.8633 47.448 52.7673 47.904 52.5753 48.132H54.8793V49.5ZM57.9113 47.328C57.9113 48.78 57.2393 49.5 55.8953 49.5H54.4793V48.132H55.6193C56.0633 48.132 56.3393 48 56.4713 47.736C56.5313 47.592 56.5673 47.304 56.5673 46.872V41.76H57.9113V47.328ZM60.477 49.5H59.145V41.748H60.477V49.5Z" fill="#8F8F8F"/>
</svg>
