<svg width="89" height="64" viewBox="0 0 89 64" fill="none" xmlns="http://www.w3.org/2000/svg">
<rect x="19.5" y="8.5" width="50" height="28" rx="14" fill="#E6E6E6"/>
<path d="M44.5 29.5C49.1944 29.5 53 25.6944 53 21C53 16.3056 49.1944 12.5 44.5 12.5C39.8056 12.5 36 16.3056 36 21C36 25.6944 39.8056 29.5 44.5 29.5Z" stroke="black" stroke-width="2" stroke-linecap="round" stroke-linejoin="round"/>
<circle cx="44.5" cy="21" r="6.5" fill="black"/>
<path d="M40.408 51.5H32.2C29.656 51.5 28.384 50.372 28.384 48.104V46.052H29.716V48.104C29.716 48.884 29.944 49.436 30.4 49.748C30.76 50 31.312 50.132 32.044 50.132H36.124C36.52 50.132 36.796 50 36.928 49.724C37.024 49.544 37.072 49.232 37.072 48.812V46.052H38.416V48.74C38.416 49.448 38.32 49.904 38.116 50.132H40.408V51.5ZM34.06 44.156H32.752V42.812H34.06V44.156ZM35.176 46.04H33.868V44.708H35.176V46.04ZM32.896 46.04H31.588V44.708H32.896V46.04ZM49.6784 51.5H40.0424V50.132H46.9784C46.9784 49.388 46.7744 48.752 46.3544 48.224C45.8624 47.612 45.1664 47.312 44.2904 47.312C43.9904 47.312 43.6544 47.384 43.2824 47.54C42.8504 47.72 42.4904 47.972 42.2024 48.296C42.0704 48.044 41.8544 47.696 41.5544 47.24C41.9264 46.892 42.3464 46.604 42.8384 46.388C43.3664 46.16 43.8944 46.052 44.4224 46.052C45.2504 46.052 45.9824 46.244 46.6064 46.628C47.6984 47.3 48.2984 48.464 48.4064 50.132H49.6784V51.5ZM52.8513 54.14H51.5313V52.796H52.8513V54.14ZM54.8793 51.5H49.3353V50.132H50.5833C50.9793 50.132 51.2433 50 51.3873 49.724C51.4833 49.544 51.5313 49.232 51.5313 48.812V46.052H52.8633V48.74C52.8633 49.448 52.7673 49.904 52.5753 50.132H54.8793V51.5ZM57.9113 49.328C57.9113 50.78 57.2393 51.5 55.8953 51.5H54.4793V50.132H55.6193C56.0633 50.132 56.3393 50 56.4713 49.736C56.5313 49.592 56.5673 49.304 56.5673 48.872V43.76H57.9113V49.328ZM60.477 51.5H59.145V43.748H60.477V51.5Z" fill="black"/>
</svg>
