<svg width="88" height="64" viewBox="0 0 88 64" fill="none" xmlns="http://www.w3.org/2000/svg">
<rect x="18.8335" y="8.5" width="50" height="28" rx="14" fill="#E6E6E6"/>
<path d="M45.3335 12.5C39.8135 12.5 35.3335 16.98 35.3335 22.5C35.3335 28.02 39.8135 32.5 45.3335 32.5C50.8535 32.5 55.3335 28.02 55.3335 22.5C55.3335 16.98 50.8535 12.5 45.3335 12.5ZM45.3335 15.5C46.9935 15.5 48.3335 16.84 48.3335 18.5C48.3335 20.16 46.9935 21.5 45.3335 21.5C43.6735 21.5 42.3335 20.16 42.3335 18.5C42.3335 16.84 43.6735 15.5 45.3335 15.5ZM45.3335 29.7C42.8335 29.7 40.6235 28.42 39.3335 26.48C39.3635 24.49 43.3335 23.4 45.3335 23.4C47.3235 23.4 51.3035 24.49 51.3335 26.48C50.0435 28.42 47.8335 29.7 45.3335 29.7Z" fill="black"/>
<path d="M33.7575 51.5H31.2615C30.5775 52.748 29.3415 53.492 28.0215 53.492C25.9335 53.492 24.2175 51.644 24.2175 49.388V48.212H25.5735V49.232C25.5735 50.888 26.5575 52.208 28.0215 52.208C29.4375 52.208 30.4455 50.924 30.4455 49.232V43.76H31.8015V49.388C31.8015 49.64 31.7775 49.88 31.7295 50.132H33.7575V51.5ZM36.7314 49.328C36.7314 50.78 36.0594 51.5 34.7274 51.5H33.3114V50.132H34.4394C34.8834 50.132 35.1594 50 35.2914 49.736C35.3514 49.592 35.3874 49.304 35.3874 48.872V46.052H36.7314V49.328ZM34.4274 54.128H33.1074V52.784H34.4274V54.128ZM36.6954 54.128H35.3754V52.784H36.6954V54.128ZM41.5028 51.5H39.9308C39.2828 51.5 38.7908 51.296 38.4428 50.876C38.1188 50.492 37.9628 49.976 37.9628 49.316V43.76H39.2948V48.776C39.2948 49.364 39.4268 49.748 39.6788 49.928C39.8588 50.06 40.2068 50.132 40.7108 50.132H41.5028V51.5ZM48.0633 48.74C48.0633 50.324 46.9833 51.5 45.3753 51.5H41.1033V50.132H43.0113C42.7833 49.7 42.6633 49.22 42.6633 48.704C42.6633 47.072 43.7793 45.932 45.3753 45.932C46.9713 45.932 48.0633 47.168 48.0633 48.74ZM46.6833 48.74C46.6833 47.828 46.1313 47.156 45.3273 47.156C44.5593 47.156 44.0433 47.756 44.0433 48.692C44.0433 49.556 44.5953 50.264 45.3993 50.264C46.1793 50.264 46.6833 49.628 46.6833 48.74ZM46.0233 44.924H44.7153V43.592H46.0233V44.924ZM54.3589 51.332C54.3589 52.76 53.4949 53.48 51.7549 53.48V52.412C52.5949 52.388 53.0149 51.824 53.0389 50.888C52.8109 51.296 52.3789 51.5 51.7669 51.5C50.2189 51.5 49.1869 50.36 49.1869 48.764C49.1869 47.144 50.2549 46.04 51.7669 46.04C53.3509 46.04 54.3589 47.216 54.3589 48.8V51.332ZM52.9789 48.824C52.9789 47.888 52.4749 47.264 51.7069 47.264C50.9989 47.264 50.5309 47.948 50.5309 48.764C50.5309 49.604 51.0349 50.288 51.7669 50.288C52.4869 50.288 52.9789 49.616 52.9789 48.824ZM60.3276 51.5H58.1796C57.9756 52.784 56.8836 53.492 55.2516 53.492V52.34C56.3676 52.34 56.9196 51.788 56.9196 50.636V46.052H58.2636V50.132H60.3276V51.5ZM63.2719 49.328C63.2719 50.78 62.5999 51.5 61.2679 51.5H59.9719V50.132H60.9919C61.4359 50.132 61.7119 50 61.8439 49.736C61.9039 49.592 61.9399 49.304 61.9399 48.872V46.052H63.2719V49.328ZM63.2599 54.128H61.9519V52.784H63.2599V54.128Z" fill="black"/>
</svg>
