<svg width="88" height="64" viewBox="0 0 88 64" fill="none" xmlns="http://www.w3.org/2000/svg">
<rect x="19.167" y="8.5" width="50" height="28" rx="14" fill="#E6E6E6"/>
<path fill-rule="evenodd" clip-rule="evenodd" d="M38.7271 15.3893C36.1848 17.277 34.9136 18.2209 34.4144 19.6151C34.3743 19.727 34.3383 19.8403 34.3064 19.9548C33.9084 21.3827 34.3939 22.9099 35.365 25.9643C36.3361 29.0187 36.8216 30.5459 37.9648 31.462C38.0565 31.5355 38.1508 31.6055 38.2475 31.672C39.4533 32.5 41.0245 32.5 44.167 32.5C47.3095 32.5 48.8807 32.5 50.0865 31.672C50.1832 31.6055 50.2775 31.5355 50.3692 31.462C51.5124 30.5459 51.9979 29.0187 52.969 25.9643C53.94 22.9099 54.4256 21.3827 54.0276 19.9548C53.9957 19.8403 53.9597 19.727 53.9196 19.6151C53.4204 18.2209 52.1492 17.277 49.6069 15.3893C47.0646 13.5016 45.7935 12.5577 44.3417 12.5033C44.2253 12.4989 44.1087 12.4989 43.9922 12.5033C42.5405 12.5577 41.2694 13.5016 38.7271 15.3893ZM42.2604 27.1821C41.8655 27.1821 41.5454 27.5093 41.5454 27.9129C41.5454 28.3164 41.8655 28.6436 42.2604 28.6436H46.0736C46.4685 28.6436 46.7886 28.3164 46.7886 27.9129C46.7886 27.5093 46.4685 27.1821 46.0736 27.1821H42.2604Z" fill="black"/>
<path d="M29.195 51.5H27.743C26.699 51.5 25.847 50.792 25.571 49.724C25.151 50.324 24.635 50.624 24.035 50.624C22.499 50.624 21.551 49.472 21.551 47.804C21.551 46.004 22.499 44.888 24.035 44.888H26.999V48.692C26.999 49.628 27.443 50.132 28.343 50.132H29.195V51.5ZM25.607 47.672V45.932H24.395C23.459 45.932 22.883 46.676 22.883 47.792C22.883 48.716 23.399 49.508 24.203 49.508C25.079 49.508 25.607 48.692 25.607 47.672ZM24.623 43.916H23.303V42.572H24.623V43.916ZM26.891 43.916H25.571V42.572H26.891V43.916ZM34.358 51.5H28.826V50.132H30.11C30.506 50.132 30.782 50 30.926 49.724C31.022 49.544 31.07 49.232 31.07 48.812V46.052H32.402V48.74C32.402 49.448 32.306 49.904 32.102 50.132H34.358V51.5ZM32.354 54.128H31.034V52.784H32.354V54.128ZM30.086 54.128H28.766V52.784H30.086V54.128ZM33.9577 51.5V50.132H35.1817C35.8657 50.132 36.2017 49.664 36.2017 48.716V46.052H37.5577V48.668C37.5577 49.376 37.4857 49.832 37.3417 50.06V50.132H38.5897C39.2737 50.132 39.6097 49.688 39.6097 48.8V46.052H40.9657V48.668C40.9657 49.448 40.8697 49.94 40.6897 50.132H41.9977C42.6817 50.132 43.0177 49.688 43.0177 48.812V46.052H44.3737V48.644C44.3737 49.208 44.2777 49.7 44.0737 50.132H46.1257V51.5H33.9577ZM51.2447 51.5H45.7127V50.132H46.9967C47.3927 50.132 47.6687 50 47.8127 49.724C47.9087 49.544 47.9567 49.232 47.9567 48.812V46.052H49.2887V48.74C49.2887 49.448 49.1927 49.904 48.9887 50.132H51.2447V51.5ZM49.2407 54.128H47.9207V52.784H49.2407V54.128ZM46.9727 54.128H45.6527V52.784H46.9727V54.128ZM54.3244 46.04H51.3364V45.236H51.9844C51.9004 45.056 51.8644 44.852 51.8644 44.636C51.8644 43.88 52.4044 43.292 53.1604 43.292C53.6764 43.292 54.0484 43.532 54.2524 44.024L53.6884 44.396C53.6044 44.144 53.4364 44.024 53.1844 44.024C52.8244 44.024 52.6444 44.252 52.6444 44.708C52.6444 44.936 52.7044 45.104 52.8124 45.236H54.3244V46.04ZM54.3244 49.328C54.3244 50.78 53.6524 51.5 52.3084 51.5H51.0124V50.132H52.0324C52.4764 50.132 52.7524 50 52.8844 49.736C52.9444 49.592 52.9804 49.304 52.9804 48.872V46.736H54.3244V49.328ZM60.3095 51.5H58.1615C57.9575 52.784 56.8655 53.492 55.2335 53.492V52.34C56.3495 52.34 56.9015 51.788 56.9015 50.636V46.052H58.2455V50.132H60.3095V51.5ZM63.2658 49.328C63.2658 50.78 62.5938 51.5 61.2498 51.5H59.8338V50.132H60.9738C61.4178 50.132 61.6938 50 61.8258 49.736C61.8858 49.592 61.9218 49.304 61.9218 48.872V43.76H63.2658V49.328ZM65.8315 51.5H64.4995V43.748H65.8315V51.5Z" fill="black"/>
</svg>
