<svg width="88" height="64" viewBox="0 0 88 64" fill="none" xmlns="http://www.w3.org/2000/svg">
<path d="M54.5835 22.5C54.5835 16.572 49.7615 11.75 43.8335 11.75C37.9055 11.75 33.0835 16.572 33.0835 22.5C33.0835 25.97 34.7425 29.052 37.3025 31.019C37.3065 31.023 37.3125 31.0251 37.3165 31.0291C39.1275 32.4161 41.3825 33.25 43.8345 33.25C46.2865 33.25 48.5415 32.4161 50.3525 31.0291C50.3565 31.0251 50.3625 31.023 50.3665 31.019C52.9245 29.052 54.5835 25.97 54.5835 22.5ZM34.5835 22.5C34.5835 17.399 38.7325 13.25 43.8335 13.25C48.9345 13.25 53.0835 17.399 53.0835 22.5C53.0835 25.023 52.0655 27.3121 50.4215 28.9821C49.9725 27.0811 48.5355 25.3199 45.5435 25.3199H42.1235C39.1315 25.3199 37.6935 27.0811 37.2455 28.9821C35.6015 27.3121 34.5835 25.023 34.5835 22.5ZM38.5925 30.114C38.6505 29.088 39.1195 26.8199 42.1235 26.8199H45.5435C48.5475 26.8199 49.0165 29.088 49.0745 30.114C47.5835 31.144 45.7785 31.75 43.8335 31.75C41.8885 31.75 40.0835 31.143 38.5925 30.114ZM43.8416 24.25C45.9086 24.25 47.5916 22.568 47.5916 20.5C47.5916 18.432 45.9086 16.75 43.8416 16.75C41.7746 16.75 40.0916 18.432 40.0916 20.5C40.0916 22.568 41.7736 24.25 43.8416 24.25ZM43.8416 18.25C45.0816 18.25 46.0916 19.259 46.0916 20.5C46.0916 21.741 45.0816 22.75 43.8416 22.75C42.6016 22.75 41.5916 21.741 41.5916 20.5C41.5916 19.259 42.6016 18.25 43.8416 18.25Z" fill="#8F8F8F"/>
<path d="M33.7575 49.5H31.2615C30.5775 50.748 29.3415 51.492 28.0215 51.492C25.9335 51.492 24.2175 49.644 24.2175 47.388V46.212H25.5735V47.232C25.5735 48.888 26.5575 50.208 28.0215 50.208C29.4375 50.208 30.4455 48.924 30.4455 47.232V41.76H31.8015V47.388C31.8015 47.64 31.7775 47.88 31.7295 48.132H33.7575V49.5ZM36.7314 47.328C36.7314 48.78 36.0594 49.5 34.7274 49.5H33.3114V48.132H34.4394C34.8834 48.132 35.1594 48 35.2914 47.736C35.3514 47.592 35.3874 47.304 35.3874 46.872V44.052H36.7314V47.328ZM34.4274 52.128H33.1074V50.784H34.4274V52.128ZM36.6954 52.128H35.3754V50.784H36.6954V52.128ZM41.5028 49.5H39.9308C39.2828 49.5 38.7908 49.296 38.4428 48.876C38.1188 48.492 37.9628 47.976 37.9628 47.316V41.76H39.2948V46.776C39.2948 47.364 39.4268 47.748 39.6788 47.928C39.8588 48.06 40.2068 48.132 40.7108 48.132H41.5028V49.5ZM48.0633 46.74C48.0633 48.324 46.9833 49.5 45.3753 49.5H41.1033V48.132H43.0113C42.7833 47.7 42.6633 47.22 42.6633 46.704C42.6633 45.072 43.7793 43.932 45.3753 43.932C46.9713 43.932 48.0633 45.168 48.0633 46.74ZM46.6833 46.74C46.6833 45.828 46.1313 45.156 45.3273 45.156C44.5593 45.156 44.0433 45.756 44.0433 46.692C44.0433 47.556 44.5953 48.264 45.3993 48.264C46.1793 48.264 46.6833 47.628 46.6833 46.74ZM46.0233 42.924H44.7153V41.592H46.0233V42.924ZM54.3589 49.332C54.3589 50.76 53.4949 51.48 51.7549 51.48V50.412C52.5949 50.388 53.0149 49.824 53.0389 48.888C52.8109 49.296 52.3789 49.5 51.7669 49.5C50.2189 49.5 49.1869 48.36 49.1869 46.764C49.1869 45.144 50.2549 44.04 51.7669 44.04C53.3509 44.04 54.3589 45.216 54.3589 46.8V49.332ZM52.9789 46.824C52.9789 45.888 52.4749 45.264 51.7069 45.264C50.9989 45.264 50.5309 45.948 50.5309 46.764C50.5309 47.604 51.0349 48.288 51.7669 48.288C52.4869 48.288 52.9789 47.616 52.9789 46.824ZM60.3276 49.5H58.1796C57.9756 50.784 56.8836 51.492 55.2516 51.492V50.34C56.3676 50.34 56.9196 49.788 56.9196 48.636V44.052H58.2636V48.132H60.3276V49.5ZM63.2719 47.328C63.2719 48.78 62.5999 49.5 61.2679 49.5H59.9719V48.132H60.9919C61.4359 48.132 61.7119 48 61.8439 47.736C61.9039 47.592 61.9399 47.304 61.9399 46.872V44.052H63.2719V47.328ZM63.2599 52.128H61.9519V50.784H63.2599V52.128Z" fill="#8F8F8F"/>
</svg>
