<svg width="40" height="40" viewBox="0 0 40 40" fill="none" xmlns="http://www.w3.org/2000/svg">
<rect width="40" height="40" rx="20" fill="#6F7384"/>
<path d="M17.5075 18.958C19.4609 18.958 21.0492 17.3688 21.0492 15.4163C21.0492 13.4638 19.4609 11.8747 17.5075 11.8747C15.5542 11.8747 13.9659 13.4638 13.9659 15.4163C13.9659 17.3688 15.5542 18.958 17.5075 18.958ZM17.5075 13.1247C18.7717 13.1247 19.7992 14.1522 19.7992 15.4163C19.7992 16.6805 18.7717 17.708 17.5075 17.708C16.2434 17.708 15.2159 16.6805 15.2159 15.4163C15.2159 14.1522 16.2434 13.1247 17.5075 13.1247ZM23.9584 25.0163C23.9584 27.0205 22.8484 28.1247 20.8334 28.1247H15.7417C15.3967 28.1247 15.1167 27.8447 15.1167 27.4997C15.1167 27.1547 15.3967 26.8747 15.7417 26.8747H20.8334C22.1475 26.8747 22.7084 26.3188 22.7084 25.0163C22.7084 24.5447 22.6117 22.9363 21.3683 22.0713C21.085 21.8738 21.015 21.4847 21.2125 21.2013C21.4092 20.918 21.7975 20.8472 22.0825 21.0447C23.2567 21.863 23.9584 23.3472 23.9584 25.0163ZM26.2351 17.0597C26.4617 17.2764 26.4942 17.6189 26.32 17.8672C26.0458 18.3422 25.65 18.7255 25.1734 18.978C25.0767 19.0322 24.9684 19.0605 24.8609 19.0605C24.7009 19.0605 24.5417 19.0005 24.4209 18.8797C24.1767 18.6355 24.1726 18.2438 24.4167 17.9996C24.4617 17.9546 24.5217 17.9088 24.5784 17.8788C24.865 17.7296 25.0916 17.5063 25.2533 17.2146C25.2791 17.168 25.3108 17.1247 25.3475 17.0863C25.585 16.8355 25.9851 16.8222 26.2351 17.0597ZM28.9584 23.8997C28.9584 25.5255 28.02 26.458 26.3834 26.458H25.8167C25.4717 26.458 25.1917 26.178 25.1917 25.833C25.1917 25.488 25.4717 25.208 25.8167 25.208H26.3834C27.3375 25.208 27.7084 24.8414 27.7084 23.8997C27.7084 23.2839 27.5192 21.2747 25.0917 21.2747H23.8325C23.4875 21.2747 23.2075 20.9947 23.2075 20.6497C23.2075 20.3047 23.4875 20.0247 23.8325 20.0247H25.0917C27.9458 20.0247 28.9584 22.1122 28.9584 23.8997ZM27.9417 12.9413C28.1859 12.6972 28.1859 12.3013 27.9417 12.0571C27.6975 11.813 27.3017 11.813 27.0575 12.0571L25.2026 13.9121C24.3867 13.4696 23.3384 13.4238 22.5384 13.8355C22.2317 13.993 22.1101 14.3705 22.2684 14.6772C22.4251 14.9839 22.8042 15.1063 23.1101 14.9472C23.4359 14.7805 23.8566 14.7688 24.2425 14.873L18.9075 20.208H15.8334C12.2967 20.208 11.0417 22.798 11.0417 25.0163C11.0417 26.003 11.3092 26.7605 11.8267 27.2897L11.225 27.8913C10.9808 28.1355 10.9808 28.5313 11.225 28.7755C11.3467 28.8972 11.5067 28.9588 11.6667 28.9588C11.8267 28.9588 11.9867 28.898 12.1084 28.7755L27.9417 12.9413ZM12.2917 25.0163C12.2917 24.1822 12.5475 21.458 15.8334 21.458H17.6575L12.7075 26.4079C12.4834 26.1696 12.2917 25.7655 12.2917 25.0163Z" fill="white"/>
</svg>
