<svg width="40" height="40" viewBox="0 0 40 40" fill="none" xmlns="http://www.w3.org/2000/svg">
<rect width="40" height="40" rx="20" fill="#6F7384"/>
<path d="M21.4559 26.5802C21.4867 26.9243 21.2324 27.2276 20.889 27.2585C19.634 27.3718 18.3341 27.241 17.1716 26.8943C16.0349 27.8835 14.4699 28.1252 13.2141 28.1252C13.0932 28.1252 12.9759 28.1235 12.8609 28.1194C12.4442 28.1094 12.0791 27.8426 11.9366 27.4401C11.7933 27.0351 11.9117 26.5944 12.2367 26.3177C13.0134 25.691 13.3241 24.9977 13.4491 24.5219C12.4182 23.2894 11.8741 21.7335 11.8741 20.001C11.8741 15.7068 15.2158 12.7085 19.9991 12.7085C24.7825 12.7085 28.1241 15.7076 28.1241 20.001C28.1241 20.346 27.8441 20.626 27.4991 20.626C27.1541 20.626 26.8741 20.346 26.8741 20.001C26.8741 16.4426 24.0466 13.9585 19.9991 13.9585C15.9516 13.9585 13.1241 16.4435 13.1241 20.001C13.1241 21.531 13.6283 22.886 14.5833 23.9193C14.7125 24.0593 14.7716 24.251 14.7416 24.4402C14.6016 25.3327 14.1615 26.1769 13.4849 26.8694C14.4515 26.8344 15.7517 26.6119 16.5517 25.7585C16.7192 25.5785 16.9783 25.5143 17.2117 25.5952C18.305 25.9735 19.5615 26.1226 20.7757 26.0134C21.1191 25.9793 21.425 26.236 21.4559 26.5802ZM27.9417 22.8918C27.6975 22.6476 27.3016 22.6476 27.0575 22.8918L25.8325 24.1168L24.6075 22.8918C24.3633 22.6476 23.9675 22.6476 23.7233 22.8918C23.4791 23.136 23.4791 23.5318 23.7233 23.776L24.9483 25.001L23.7233 26.226C23.4791 26.4701 23.4791 26.866 23.7233 27.1101C23.845 27.2318 24.005 27.2935 24.165 27.2935C24.325 27.2935 24.485 27.2326 24.6067 27.1101L25.8317 25.8852L27.0566 27.1101C27.1783 27.2318 27.3383 27.2935 27.4983 27.2935C27.6583 27.2935 27.8184 27.2326 27.94 27.1101C28.1842 26.866 28.1842 26.4701 27.94 26.226L26.715 25.001L27.94 23.776C28.1859 23.531 28.1858 23.136 27.9417 22.8918ZM20.0083 19.1668C19.5483 19.1668 19.179 19.5402 19.179 20.0002C19.179 20.4602 19.5566 20.8335 20.0166 20.8335C20.4775 20.8335 20.85 20.4602 20.85 20.0002C20.85 19.5402 20.4775 19.1668 20.0166 19.1668H20.0083ZM24.1833 20.0002C24.1833 19.5402 23.8108 19.1668 23.35 19.1668H23.3416C22.8816 19.1668 22.5124 19.5402 22.5124 20.0002C22.5124 20.4602 22.89 20.8335 23.35 20.8335C23.81 20.8335 24.1833 20.4602 24.1833 20.0002ZM16.675 19.1668C16.215 19.1668 15.8457 19.5402 15.8457 20.0002C15.8457 20.4602 16.2233 20.8335 16.6833 20.8335C17.1441 20.8335 17.5166 20.4602 17.5166 20.0002C17.5166 19.5402 17.1441 19.1668 16.6833 19.1668H16.675Z" fill="white"/>
</svg>
