<svg width="25" height="25" viewBox="0 0 25 25" fill="none" xmlns="http://www.w3.org/2000/svg">
<path d="M23.5833 12.5C23.5833 6.572 18.7613 1.75 12.8333 1.75C6.90525 1.75 2.08325 6.572 2.08325 12.5C2.08325 15.97 3.74225 19.052 6.30225 21.019C6.30625 21.023 6.31228 21.0251 6.31628 21.0291C8.12728 22.4161 10.3822 23.25 12.8342 23.25C15.2862 23.25 17.5413 22.4161 19.3523 21.0291C19.3563 21.0251 19.3622 21.023 19.3662 21.019C21.9242 19.052 23.5833 15.97 23.5833 12.5ZM3.58325 12.5C3.58325 7.399 7.73225 3.25 12.8333 3.25C17.9343 3.25 22.0833 7.399 22.0833 12.5C22.0833 15.023 21.0653 17.3121 19.4213 18.9821C18.9723 17.0811 17.5352 15.3199 14.5432 15.3199H11.1233C8.13129 15.3199 6.69324 17.0811 6.24524 18.9821C4.60124 17.3121 3.58325 15.023 3.58325 12.5ZM7.59229 20.114C7.65029 19.088 8.11929 16.8199 11.1233 16.8199H14.5432C17.5472 16.8199 18.0162 19.088 18.0742 20.114C16.5832 21.144 14.7783 21.75 12.8333 21.75C10.8883 21.75 9.08329 21.143 7.59229 20.114ZM12.8413 14.25C14.9083 14.25 16.5913 12.568 16.5913 10.5C16.5913 8.432 14.9083 6.75 12.8413 6.75C10.7743 6.75 9.09131 8.432 9.09131 10.5C9.09131 12.568 10.7733 14.25 12.8413 14.25ZM12.8413 8.25C14.0813 8.25 15.0913 9.259 15.0913 10.5C15.0913 11.741 14.0813 12.75 12.8413 12.75C11.6013 12.75 10.5913 11.741 10.5913 10.5C10.5913 9.259 11.6013 8.25 12.8413 8.25Z" fill="#8F8F8F"/>
</svg>
