<svg width="25" height="25" viewBox="0 0 25 25" fill="none" xmlns="http://www.w3.org/2000/svg">
<path d="M12.3333 2.5C6.81325 2.5 2.33325 6.98 2.33325 12.5C2.33325 18.02 6.81325 22.5 12.3333 22.5C17.8533 22.5 22.3333 18.02 22.3333 12.5C22.3333 6.98 17.8533 2.5 12.3333 2.5ZM12.3333 5.5C13.9933 5.5 15.3333 6.84 15.3333 8.5C15.3333 10.16 13.9933 11.5 12.3333 11.5C10.6733 11.5 9.33325 10.16 9.33325 8.5C9.33325 6.84 10.6733 5.5 12.3333 5.5ZM12.3333 19.7C9.83325 19.7 7.62325 18.42 6.33325 16.48C6.36325 14.49 10.3333 13.4 12.3333 13.4C14.3233 13.4 18.3033 14.49 18.3333 16.48C17.0433 18.42 14.8333 19.7 12.3333 19.7Z" fill="black"/>
</svg>
