<svg width="105" height="108" viewBox="0 0 105 108" fill="none" xmlns="http://www.w3.org/2000/svg">
<g clip-path="url(#clip0_484_1431)">
<path d="M52 106C80.7188 106 104 82.7188 104 54C104 25.2812 80.7188 2 52 2C23.2812 2 0 25.2812 0 54C0 82.7188 23.2812 106 52 106Z" fill="#D6F6EF"/>
<path d="M52 90C71.8823 90 88 73.8823 88 54C88 34.1177 71.8823 18 52 18C32.1177 18 16 34.1177 16 54C16 73.8823 32.1177 90 52 90Z" fill="#B80C08"/>
<path d="M64.8333 41.1665L39.1666 66.8332M39.1667 41.1665L64.8334 66.8332" stroke="#FDFFFC" stroke-width="4" stroke-linecap="round" stroke-linejoin="round"/>
<path d="M14.5182 6.61804C16.0847 6.61804 17.3546 5.34816 17.3546 3.78168C17.3546 2.2152 16.0847 0.945312 14.5182 0.945312C12.9518 0.945312 11.6819 2.2152 11.6819 3.78168C11.6819 5.34816 12.9518 6.61804 14.5182 6.61804Z" fill="#E62129"/>
<path d="M101.718 15.1273C103.285 15.1273 104.555 13.8574 104.555 12.291C104.555 10.7245 103.285 9.45459 101.718 9.45459C100.152 9.45459 98.8818 10.7245 98.8818 12.291C98.8818 13.8574 100.152 15.1273 101.718 15.1273Z" fill="#B80C08"/>
<path d="M86.6454 107.055C88.2119 107.055 89.4818 105.785 89.4818 104.218C89.4818 102.652 88.2119 101.382 86.6454 101.382C85.079 101.382 83.8091 102.652 83.8091 104.218C83.8091 105.785 85.079 107.055 86.6454 107.055Z" fill="#FFA100"/>
<path d="M9.79095 103.272C11.3574 103.272 12.6273 102.002 12.6273 100.436C12.6273 98.8695 11.3574 97.5996 9.79095 97.5996C8.22447 97.5996 6.95459 98.8695 6.95459 100.436C6.95459 102.002 8.22447 103.272 9.79095 103.272Z" fill="#B80C08"/>
</g>
<defs>
<clipPath id="clip0_484_1431">
<rect width="105" height="108" fill="white"/>
</clipPath>
</defs>
</svg>
