<svg width="18" height="18" viewBox="0 0 18 18" fill="none" xmlns="http://www.w3.org/2000/svg">
<path d="M6.23699 7.88151L11.7604 5.11982M11.763 12.8815L6.24482 10.1224M16.5 4C16.5 5.38071 15.3807 6.5 14 6.5C12.6193 6.5 11.5 5.38071 11.5 4C11.5 2.61929 12.6193 1.5 14 1.5C15.3807 1.5 16.5 2.61929 16.5 4ZM6.5 9C6.5 10.3807 5.38071 11.5 4 11.5C2.61929 11.5 1.5 10.3807 1.5 9C1.5 7.61929 2.61929 6.5 4 6.5C5.38071 6.5 6.5 7.61929 6.5 9ZM16.5 14C16.5 15.3807 15.3807 16.5 14 16.5C12.6193 16.5 11.5 15.3807 11.5 14C11.5 12.6193 12.6193 11.5 14 11.5C15.3807 11.5 16.5 12.6193 16.5 14Z" stroke="black" stroke-opacity="0.8" stroke-width="1.5"/>
</svg>
