<svg width="40" height="40" viewBox="0 0 40 40" fill="none" xmlns="http://www.w3.org/2000/svg">
<rect width="40" height="40" rx="20" fill="#6F7384"/>
<path d="M20 11.0415C15.06 11.0415 11.0416 15.0607 11.0416 19.9998C11.0416 24.939 15.06 28.9582 20 28.9582C24.94 28.9582 28.9583 24.939 28.9583 19.9998C28.9583 15.0607 24.94 11.0415 20 11.0415ZM27.7083 19.9998C27.7083 20.0282 27.7041 20.0557 27.7041 20.084C27.3308 20.1715 26.9566 20.3623 26.6666 20.659C26.54 20.5582 26.25 20.2573 25.7808 19.3915C25.2625 18.4357 25.4683 17.9915 25.7799 17.319C25.8858 17.0915 25.99 16.8623 26.0667 16.6257C26.1891 16.2632 26.1691 15.7815 26.0816 15.279C27.0966 16.5857 27.7083 18.2207 27.7083 19.9998ZM12.2916 19.9998C12.2916 19.5915 12.3324 19.194 12.3941 18.8032C13.1216 20.8932 14.7541 21.7215 15.6641 22.1807C15.8175 22.2582 15.9991 22.3498 16.0991 22.4123C16.1391 22.6348 16.1325 22.7915 16.1191 23.064C16.1066 23.3365 16.0908 23.6765 16.1158 24.2057C16.1658 25.2348 17.0025 25.6723 17.6141 25.9915C17.9808 26.1832 18.3283 26.364 18.5058 26.6265C18.5949 26.754 18.6775 27.154 18.6483 27.5815C15.0416 26.9407 12.2916 23.789 12.2916 19.9998ZM19.8899 27.7023C19.9424 27.0232 19.8174 26.319 19.5366 25.9182C19.1874 25.4023 18.66 25.1265 18.1941 24.884C17.5741 24.5598 17.3783 24.4157 17.3658 24.1465C17.3433 23.6732 17.3583 23.3682 17.3691 23.124C17.3858 22.7723 17.4 22.4682 17.2916 22.0023C17.1858 21.5482 16.7633 21.3348 16.2283 21.0648C15.0941 20.4932 13.2125 19.5365 13.2825 16.2323C14.605 13.8832 17.1183 12.2915 20.0008 12.2915C20.3283 12.2915 20.6491 12.319 20.9666 12.359C20.8324 12.5348 20.6408 12.6807 20.4441 12.7448C18.7216 13.309 18.7033 14.8407 18.6908 15.8548C18.6808 16.7057 18.6258 16.8607 18.5016 16.8898C18.3975 16.8823 18.1041 16.724 17.93 16.629C17.4825 16.3857 17.0208 16.134 16.54 16.2507C16.1433 16.344 15.6608 16.7123 15.5066 17.2357C15.4299 17.4957 15.3758 18.0107 15.8749 18.5282C16.1766 18.8407 16.1875 18.9632 16.2108 19.2073C16.2283 19.394 16.2533 19.649 16.39 19.9623C16.9158 21.124 18.4933 20.9448 19.0933 20.8748C20.0249 20.7582 20.1933 20.7532 20.6608 21.2398C20.8508 21.4373 20.9616 21.689 21.0783 21.9557C21.3008 22.4607 21.6041 23.1523 22.5433 23.2607C23.2766 23.3515 23.7466 23.5823 23.8874 23.7715C23.9216 23.8173 23.93 23.849 23.9208 23.9023C23.8766 24.164 23.5483 24.4765 23.1675 24.839C22.5358 25.439 21.6991 26.244 21.3966 27.5765C20.9433 27.6598 20.4775 27.7098 20 27.7098C19.9625 27.7082 19.9266 27.7032 19.8899 27.7023ZM22.8658 27.1498C23.1575 26.5773 23.5958 26.154 24.0283 25.7432C24.5491 25.2482 25.04 24.7815 25.1541 24.1082C25.22 23.7173 25.1291 23.3415 24.8908 23.0223C24.3675 22.3198 23.2925 22.0915 22.6933 22.0173C22.4966 21.9948 22.4441 21.9507 22.2241 21.4507C22.0833 21.1298 21.9074 20.7298 21.5633 20.3723C20.6474 19.419 19.8924 19.5132 18.9458 19.6323C17.8024 19.7623 17.5749 19.544 17.5333 19.4523C17.4799 19.3307 17.4708 19.234 17.4574 19.0882C17.4174 18.6657 17.3349 18.2382 16.7758 17.659C16.7291 17.6107 16.71 17.5773 16.7075 17.5857C16.7208 17.5498 16.7949 17.4807 16.7799 17.4715C16.8808 17.4807 17.1641 17.6348 17.3333 17.7265C17.7774 17.9682 18.2375 18.2165 18.72 18.1173C19.9183 17.8707 19.9316 16.714 19.9416 15.869C19.9558 14.7207 20.0441 14.1907 20.8341 13.9323C21.4091 13.744 21.985 13.2607 22.2441 12.6265C22.9183 12.8323 23.55 13.1307 24.1316 13.5023C24.5408 14.1307 25.0391 15.7657 24.8816 16.234C24.8183 16.429 24.7325 16.6115 24.6475 16.7932C24.2991 17.544 23.8658 18.479 24.6833 19.9873C25.3891 21.2882 25.9558 21.8732 26.5791 21.9448C26.6133 21.949 26.6525 21.9515 26.6966 21.9515C26.9191 21.9515 27.25 21.8798 27.5541 21.5415C27.0316 24.099 25.2375 26.1957 22.8658 27.1498Z" fill="white"/>
</svg>
